<svg width="24" height="24" viewBox="0 0 24 24" fill="none" xmlns="http://www.w3.org/2000/svg">
<path d="M11.3741 23.0837C11.3178 23.0882 11.2613 23.0801 11.2085 23.0599C11.1558 23.0397 11.1083 23.008 11.0694 22.9671C11.0198 22.8732 10.9894 22.7704 10.9799 22.6646C10.9705 22.5589 10.9822 22.4523 11.0144 22.3511V22.328C11.0419 22.1641 11.1662 21.3952 11.1662 21.393C11.2304 21.0578 11.2218 20.7126 11.1409 20.381C11.0639 20.1313 10.7416 19.941 10.1839 19.8255C7.72765 19.5318 5.42659 18.471 3.6081 16.7939C2.80118 16.0518 2.15381 15.1531 1.70542 14.1527C1.25703 13.1523 1.01702 12.0711 1 10.9749C1 6.026 5.9346 2 12 2C18.0654 2 23 6.026 23 10.9749C22.958 13.0625 22.0994 15.0504 20.6086 16.5123C18.0785 19.0847 15.1662 21.2509 11.9747 22.9341C11.7854 23.0204 11.5818 23.0711 11.3741 23.0837ZM11.043 8.6242C10.9866 8.62261 10.9318 8.64272 10.8899 8.68039C10.8479 8.71805 10.822 8.77039 10.8175 8.8266V13.6314C10.8178 13.6599 10.8241 13.688 10.8358 13.7139C10.8476 13.7399 10.8646 13.7631 10.8858 13.7821C10.907 13.8012 10.9319 13.8156 10.959 13.8245C10.986 13.8334 11.0146 13.8365 11.043 13.8338H11.824C11.8806 13.8357 11.9357 13.8157 11.9779 13.778C12.0201 13.7403 12.0461 13.6878 12.0506 13.6314V10.7714L14.2407 13.7546C14.2484 13.7625 14.2551 13.7714 14.2605 13.781C14.2704 13.7964 14.2759 13.8063 14.2902 13.8063H15.0712C15.1279 13.8088 15.1835 13.7892 15.2261 13.7517C15.2687 13.7142 15.2952 13.6616 15.3 13.605V8.8013C15.2952 8.7447 15.2687 8.69214 15.2261 8.65462C15.1835 8.6171 15.1279 8.59753 15.0712 8.6H14.3155C14.2589 8.59812 14.2038 8.61811 14.1616 8.6558C14.1194 8.69349 14.0934 8.746 14.0889 8.8024V11.6624L11.8999 8.6748C11.9001 8.67134 11.8995 8.66788 11.8982 8.66465C11.8969 8.66143 11.895 8.65852 11.8925 8.65612C11.89 8.65373 11.887 8.65189 11.8837 8.65075C11.8804 8.64961 11.877 8.64918 11.8735 8.6495L11.8482 8.6231L11.043 8.6242ZM8.9794 8.6C8.92285 8.59812 8.86775 8.61811 8.82555 8.6558C8.78335 8.69349 8.7573 8.746 8.7528 8.8024V13.605C8.75328 13.6335 8.75965 13.6617 8.77153 13.6876C8.78341 13.7136 8.80053 13.7368 8.82181 13.7558C8.84309 13.7748 8.86808 13.7892 8.89521 13.7981C8.92233 13.807 8.95099 13.8101 8.9794 13.8074H9.7593C9.81566 13.809 9.87049 13.7889 9.91245 13.7512C9.95441 13.7135 9.98031 13.6612 9.9848 13.605V8.8013C9.98005 8.74529 9.95403 8.69322 9.9121 8.65579C9.87016 8.61835 9.81549 8.59839 9.7593 8.6H8.9794ZM4.7994 8.5747C4.76964 8.57484 4.7402 8.58085 4.71277 8.59237C4.68533 8.60389 4.66043 8.6207 4.63949 8.64185C4.61855 8.66299 4.60198 8.68805 4.59073 8.7156C4.57947 8.74315 4.57376 8.77264 4.5739 8.8024V13.605C4.57874 13.6563 4.5949 13.7059 4.6212 13.7502V13.7568C4.66711 13.7856 4.71908 13.8033 4.773 13.8085H7.8475C7.876 13.8079 7.90407 13.8014 7.92992 13.7894C7.95577 13.7773 7.97884 13.7601 7.99767 13.7387C8.01649 13.7173 8.03066 13.6922 8.03927 13.665C8.04789 13.6378 8.05076 13.6091 8.0477 13.5808V12.7954C8.05989 12.785 8.06839 12.7709 8.07196 12.7552C8.07552 12.7396 8.07396 12.7232 8.0675 12.7085C8.05 12.6794 8.02483 12.6557 7.99476 12.64C7.96468 12.6243 7.93086 12.6172 7.897 12.6194H5.807V8.8013C5.807 8.7411 5.78316 8.68335 5.7407 8.64068C5.69823 8.59801 5.6406 8.57389 5.5804 8.5736L4.7994 8.5747ZM16.2526 8.5483C16.2019 8.55283 16.153 8.56902 16.1096 8.5956L16.103 8.6C16.0746 8.64558 16.0572 8.6972 16.0524 8.7507V13.55C16.0571 13.6039 16.0744 13.6559 16.103 13.7018C16.1489 13.7294 16.2004 13.7463 16.2537 13.7513H19.3238C19.3524 13.7508 19.3807 13.7444 19.4067 13.7325C19.4327 13.7205 19.456 13.7033 19.475 13.6819C19.4941 13.6605 19.5084 13.6354 19.5172 13.6081C19.526 13.5809 19.5291 13.5521 19.5262 13.5236V12.7448C19.5287 12.6879 19.5089 12.6322 19.4712 12.5895C19.4334 12.5469 19.3806 12.5205 19.3238 12.516H17.2338V11.8087H19.3238C19.3523 11.8082 19.3805 11.8018 19.4064 11.79C19.4324 11.7781 19.4556 11.761 19.4746 11.7397C19.4936 11.7184 19.508 11.6934 19.5169 11.6663C19.5258 11.6392 19.5289 11.6105 19.5262 11.5821V10.8C19.5287 10.7431 19.5089 10.6874 19.4712 10.6447C19.4334 10.6021 19.3806 10.5757 19.3238 10.5712H17.2338V9.788H19.3238C19.3524 9.78754 19.3807 9.78113 19.4067 9.76919C19.4327 9.75724 19.456 9.74002 19.475 9.71862C19.4941 9.69721 19.5084 9.67208 19.5172 9.64483C19.526 9.61758 19.5291 9.58879 19.5262 9.5603V8.7749C19.5281 8.71835 19.5081 8.66325 19.4704 8.62105C19.4327 8.57885 19.3802 8.55279 19.3238 8.5483H16.2526Z" fill="#2C2C2C"/>
</svg>
