<svg width="24" height="24" viewBox="0 0 24 24" fill="none" xmlns="http://www.w3.org/2000/svg">
<path d="M12.002 1C14.9892 1 15.3637 1.01252 16.5371 1.06641C17.4499 1.08314 18.3535 1.25442 19.209 1.57324C19.9394 1.85683 20.6029 2.2899 21.1562 2.84473C21.7096 3.39955 22.1413 4.0637 22.4229 4.79492C22.743 5.64951 22.9152 6.55245 22.9336 7.46484C22.9864 8.63845 23 9.01251 23 12C23 14.9875 22.9875 15.3616 22.9336 16.5352C22.9152 17.4476 22.743 18.3505 22.4229 19.2051C22.1403 19.9359 21.7074 20.5992 21.1533 21.1533C20.5992 21.7074 19.9359 22.1403 19.2051 22.4229C18.3505 22.743 17.4476 22.9152 16.5352 22.9336C15.3616 22.9864 14.9875 23 12 23C9.01251 23 8.63845 22.9875 7.46484 22.9336C6.55245 22.9152 5.64951 22.743 4.79492 22.4229C4.06407 22.1403 3.40075 21.7074 2.84668 21.1533C2.29261 20.5992 1.85973 19.9359 1.57715 19.2051C1.25701 18.3505 1.0848 17.4476 1.06641 16.5352C1.01361 15.3616 1 14.9875 1 12C1 9.01251 1.01251 8.63845 1.06641 7.46484C1.0848 6.55245 1.25701 5.64951 1.57715 4.79492C1.85976 4.06287 2.29278 3.39765 2.84766 2.84277C3.40248 2.28801 4.06786 1.85582 4.7998 1.57324C5.65459 1.25546 6.55695 1.08468 7.46875 1.06836C8.64245 1.01556 9.01728 1.00195 12.0049 1.00195L12.002 1ZM12.0049 2.98242C9.06811 2.98242 8.71875 2.99311 7.55957 3.0459C6.86202 3.05408 6.1708 3.18258 5.5166 3.4248C5.0416 3.60781 4.60995 3.8881 4.25 4.24805C3.89008 4.608 3.60975 5.03964 3.42676 5.51465C3.18463 6.16865 3.05608 6.8593 3.04785 7.55664C2.99505 8.71711 2.98438 9.06518 2.98438 12.002C2.98438 14.9389 2.99505 15.2879 3.04785 16.4473C3.05603 17.1448 3.18453 17.836 3.42676 18.4902C3.60977 18.9652 3.89008 19.3969 4.25 19.7568C4.60996 20.1168 5.04159 20.3971 5.5166 20.5801C6.17079 20.8223 6.86203 20.9498 7.55957 20.958C8.71877 21.0108 9.0681 21.0225 12.0049 21.0225C14.9412 21.0225 15.2901 21.0108 16.4492 20.958C17.1468 20.9498 17.838 20.8223 18.4922 20.5801C18.9672 20.3971 19.3988 20.1168 19.7588 19.7568C20.1187 19.3969 20.399 18.9652 20.582 18.4902C20.8243 17.836 20.9528 17.1448 20.9609 16.4473C21.0137 15.2868 21.0244 14.9389 21.0244 12.002C21.0244 9.06518 21.0137 8.71601 20.9609 7.55664C20.9527 6.8593 20.8242 6.16865 20.582 5.51465C20.399 5.03964 20.1187 4.608 19.7588 4.24805C19.3988 3.8881 18.9672 3.60781 18.4922 3.4248C17.838 3.18258 17.1468 3.05408 16.4492 3.0459C15.289 2.99311 14.9412 2.98242 12.0049 2.98242ZM12.0039 6.35156C13.5019 6.35156 14.9388 6.9467 15.998 8.00586C17.0573 9.06516 17.6533 10.5019 17.6533 12C17.6533 13.117 17.3217 14.2089 16.7012 15.1377C16.0805 16.0666 15.1981 16.7912 14.166 17.2188C13.1339 17.6463 11.998 17.758 10.9023 17.54C9.80678 17.3221 8.80065 16.7839 8.01074 15.9941C7.22079 15.2042 6.68279 14.1973 6.46484 13.1016C6.247 12.0061 6.35875 10.8708 6.78613 9.83887C7.21363 8.80679 7.93738 7.92437 8.86621 7.30371C9.79497 6.68313 10.8869 6.35166 12.0039 6.35156ZM13.4072 8.6123C12.7374 8.33492 12.0001 8.26285 11.2891 8.4043C10.578 8.54575 9.92479 8.89464 9.41211 9.40723C8.89937 9.91997 8.54967 10.574 8.4082 11.2852C8.26686 11.9962 8.33975 12.7335 8.61719 13.4033C8.89469 14.0731 9.36493 14.646 9.96777 15.0488C10.5705 15.4514 11.2791 15.6659 12.0039 15.666V15.6631C12.9756 15.6631 13.9083 15.2775 14.5957 14.5908C15.2832 13.904 15.67 12.9718 15.6709 12C15.6709 11.2749 15.4556 10.5658 15.0527 9.96289C14.6499 9.36006 14.0771 8.88977 13.4072 8.6123ZM17.876 4.80859C18.6049 4.80859 19.1961 5.39904 19.1963 6.12793C19.1963 6.85695 18.605 7.44824 17.876 7.44824C17.1471 7.44813 16.5566 6.85688 16.5566 6.12793C16.5568 5.39911 17.1471 4.80871 17.876 4.80859Z" fill="#2C2C2C"/>
</svg>
