<svg width="107" height="156" viewBox="0 0 107 156" fill="none" xmlns="http://www.w3.org/2000/svg">
<g clip-path="url(#clip0_1061_494)">
<path d="M33.8076 45.4801H53.3007C58.0423 45.4801 64.2961 45.4802 67.5254 47.4367C71.0669 49.5392 73.8475 53.3646 73.8475 58.6307C73.8475 64.3347 70.8425 68.6177 65.8668 70.6423V70.7981C72.4914 72.1511 76.1012 77.1056 76.1012 83.715C76.1012 91.5994 70.4523 99.114 59.7691 99.114H33.8076V45.4801ZM40.959 68.5301H55.2715C63.3985 68.5301 66.7156 65.6002 66.7156 59.9642C66.7156 52.5275 61.4472 51.4762 55.2715 51.4762H40.959V68.5301ZM40.959 93.0887H58.8813C65.0473 93.0887 68.9693 89.3314 68.9693 83.4814C68.9693 76.4924 63.3204 74.5456 57.3008 74.5456H40.959V93.0887Z" fill="black"/>
<path d="M94.3945 72.3068C94.3945 94.8311 76.0917 113.092 53.5058 113.092C30.9297 113.092 12.6269 94.8311 12.6269 72.3068C12.6269 49.7825 30.9297 31.5217 53.5058 31.5217C76.0917 31.5314 94.3945 49.7923 94.3945 72.3068ZM53.5156 25.3115C27.515 25.3115 6.43164 46.3465 6.43164 72.2873C6.43164 98.2282 27.515 119.263 53.5156 119.263C79.5259 119.263 100.609 98.2282 100.609 72.2873C100.609 46.3465 79.5259 25.3115 53.5156 25.3115Z" fill="black"/>
<path d="M100.502 129.182H6.51904V135.344H100.502V129.182Z" fill="black"/>
<path d="M97.5647 122.398C97.6818 122.398 97.7891 122.388 97.8964 122.388C97.994 122.378 98.0915 122.359 98.1696 122.329C98.2574 122.29 98.3159 122.232 98.3647 122.164C98.4135 122.086 98.433 121.989 98.433 121.862C98.433 121.755 98.4135 121.658 98.3744 121.599C98.3354 121.531 98.2769 121.483 98.2086 121.453C98.1403 121.414 98.072 121.395 97.9744 121.376C97.8866 121.366 97.8086 121.366 97.711 121.366H97.0378V122.407H97.5647V122.398ZM97.7891 120.937C98.1793 120.937 98.4623 121.015 98.6574 121.171C98.8428 121.327 98.9403 121.56 98.9403 121.882C98.9403 122.183 98.8525 122.388 98.6964 122.534C98.5306 122.67 98.3257 122.748 98.072 122.777L99.0086 124.218H98.4623L97.5647 122.806H97.0281V124.218H96.511V120.947H97.7891V120.937ZM95.4866 123.517C95.5939 123.809 95.7598 124.072 95.9744 124.286C96.1793 124.5 96.4232 124.666 96.7061 124.792C96.9793 124.909 97.2915 124.967 97.6135 124.967C97.9452 124.967 98.2476 124.909 98.5208 124.792C98.8037 124.666 99.0476 124.5 99.2525 124.286C99.4574 124.072 99.6233 123.819 99.7306 123.517C99.8477 123.225 99.9159 122.913 99.9159 122.573C99.9159 122.232 99.8574 121.921 99.7306 121.629C99.6135 121.337 99.4476 121.083 99.2525 120.869C99.0379 120.655 98.794 120.49 98.5208 120.373C98.2476 120.256 97.9354 120.188 97.6135 120.188C97.2915 120.188 96.9793 120.256 96.7061 120.373C96.4232 120.499 96.1695 120.665 95.9744 120.869C95.7598 121.083 95.6037 121.337 95.4866 121.629C95.3695 121.921 95.311 122.222 95.311 122.573C95.3012 122.904 95.3598 123.225 95.4866 123.517ZM95.0183 121.463C95.1646 121.122 95.3695 120.84 95.6232 120.587C95.8768 120.334 96.1793 120.149 96.5208 120.003C96.8622 119.857 97.233 119.789 97.6037 119.789C97.994 119.789 98.3549 119.857 98.7062 120.003C99.0379 120.149 99.3403 120.334 99.5842 120.587C99.8379 120.84 100.053 121.132 100.189 121.463C100.345 121.804 100.414 122.174 100.414 122.573C100.414 122.972 100.345 123.342 100.189 123.682C100.043 124.033 99.8379 124.325 99.5842 124.578C99.3306 124.841 99.0379 125.026 98.7062 125.172C98.3549 125.308 97.994 125.376 97.6037 125.376C97.2232 125.376 96.8622 125.308 96.5208 125.172C96.1793 125.026 95.8768 124.841 95.6232 124.578C95.3695 124.325 95.1646 124.033 95.0183 123.682C94.8622 123.342 94.8036 122.972 94.8036 122.573C94.7939 122.174 94.8622 121.804 95.0183 121.463Z" fill="black"/>
<path d="M17.9147 4.65611C17.6903 4.29595 17.4171 3.98447 17.0854 3.72165C16.7537 3.4491 16.3732 3.24469 15.9536 3.08895C15.5341 2.94294 15.0951 2.86506 14.6365 2.86506C13.7975 2.86506 13.0853 3.03054 12.4902 3.35176C11.9048 3.67298 11.4267 4.11101 11.0657 4.65611C10.7048 5.2012 10.4316 5.82417 10.2657 6.52502C10.0999 7.22586 10.0121 7.94617 10.0121 8.68595C10.0121 9.39652 10.0901 10.0876 10.2657 10.7593C10.4316 11.4309 10.695 12.0344 11.0657 12.5795C11.4267 13.1149 11.9048 13.5529 12.4902 13.8741C13.0755 14.1953 13.7877 14.3608 14.6365 14.3608C15.778 14.3608 16.6756 14.0104 17.3098 13.3193C17.9537 12.6185 18.3439 11.7035 18.4903 10.5646H22.1099C22.0123 11.6256 21.7684 12.5795 21.3684 13.4361C20.9684 14.2927 20.4513 15.0227 19.7976 15.6165C19.144 16.22 18.383 16.6775 17.5147 16.9987C16.6463 17.3102 15.6805 17.4757 14.6365 17.4757C13.339 17.4757 12.1682 17.2518 11.1243 16.7943C10.0803 16.3465 9.21204 15.7236 8.49007 14.9254C7.77786 14.1369 7.23151 13.2025 6.85101 12.1318C6.47052 11.061 6.27539 9.91242 6.27539 8.67621C6.27539 7.4108 6.46076 6.233 6.85101 5.15253C7.23151 4.07207 7.77786 3.11815 8.49007 2.31997C9.20228 1.51205 10.0803 0.879345 11.1243 0.421851C12.1584 -0.0356435 13.3292 -0.269257 14.6365 -0.269257C15.5731 -0.269257 16.461 -0.132982 17.2903 0.129834C18.1195 0.402384 18.8708 0.791741 19.5245 1.30764C20.1781 1.82354 20.7245 2.45624 21.1538 3.21549C21.583 3.97473 21.8562 4.85078 21.9635 5.82418H18.3439C18.2756 5.39588 18.1391 5.00653 17.9147 4.65611Z" fill="black"/>
<path d="M26.9784 14.1369C27.4857 14.6236 28.2174 14.8767 29.1638 14.8767C29.8467 14.8767 30.4321 14.7112 30.9297 14.3706C31.4175 14.0299 31.72 13.6697 31.837 13.2901H34.8127C34.3346 14.7599 33.6029 15.8209 32.6175 16.4536C31.6321 17.0863 30.4419 17.4075 29.0467 17.4075C28.0809 17.4075 27.2028 17.2518 26.432 16.9403C25.6515 16.6288 24.9979 16.1908 24.4515 15.6262C23.9149 15.0617 23.4954 14.3803 23.2027 13.5821C22.91 12.7937 22.7637 11.9176 22.7637 10.9734C22.7637 10.0584 22.91 9.20185 23.2125 8.4134C23.5149 7.62495 23.9442 6.93385 24.5003 6.35954C25.0564 5.78524 25.7198 5.32775 26.4906 4.9968C27.2613 4.66584 28.1101 4.50037 29.0467 4.50037C30.0907 4.50037 31.0077 4.70478 31.7883 5.10387C32.5688 5.51269 33.2029 6.04806 33.7005 6.72943C34.1981 7.41081 34.559 8.18952 34.7834 9.05584C35.0078 9.92216 35.0859 10.8371 35.0176 11.7911H26.1394C26.1881 12.8521 26.4613 13.6503 26.9784 14.1369ZM30.7931 7.68336C30.3833 7.24533 29.7687 7.02145 28.9492 7.02145C28.4126 7.02145 27.9638 7.10906 27.6028 7.294C27.2418 7.47895 26.9589 7.70282 26.7442 7.96564C26.5296 8.23819 26.3833 8.52047 26.2955 8.82223C26.2076 9.12398 26.1589 9.38679 26.1394 9.63014H31.6419C31.4858 8.77356 31.2029 8.12138 30.7931 7.68336Z" fill="black"/>
<path d="M39.7591 4.8021V7.07983H39.8079C39.964 6.70021 40.1787 6.34979 40.4518 6.01884C40.725 5.69762 41.0275 5.41534 41.3787 5.19146C41.7299 4.96758 42.1007 4.78263 42.5007 4.65609C42.9007 4.52955 43.3104 4.47115 43.7397 4.47115C43.9641 4.47115 44.208 4.51008 44.4812 4.58795V7.72227C44.3251 7.69307 44.13 7.66387 43.9056 7.6444C43.6812 7.62493 43.4665 7.60547 43.2617 7.60547C42.647 7.60547 42.1202 7.71254 41.6909 7.91695C41.2616 8.12136 40.9201 8.40365 40.6567 8.7638C40.3933 9.12396 40.2079 9.53278 40.1006 10.0097C39.9933 10.4867 39.9348 11.0026 39.9348 11.5574V17.096H36.5591V4.8021H39.7591Z" fill="black"/>
<path d="M53.5154 4.80215V7.06042H51.0373V13.1441C51.0373 13.7184 51.1348 14.098 51.3202 14.283C51.5056 14.4679 51.8958 14.5653 52.4617 14.5653C52.6568 14.5653 52.8324 14.5555 53.008 14.5458C53.1837 14.5263 53.3495 14.5069 53.5056 14.4777V17.0864C53.2227 17.135 52.9007 17.1642 52.5495 17.1837C52.1983 17.2032 51.8568 17.2129 51.5251 17.2129C50.9983 17.2129 50.5007 17.174 50.0421 17.1058C49.5738 17.0377 49.1641 16.9014 48.8031 16.6873C48.4421 16.4828 48.1689 16.1908 47.9543 15.8112C47.7494 15.4316 47.6421 14.9352 47.6421 14.3122V7.07015H45.5933V4.81188H47.6421V1.13246H51.0178V4.81188H53.5154V4.80215Z" fill="black"/>
<path d="M55.4863 2.90399V0.120087H58.862V2.90399H55.4863ZM58.862 4.8021V17.0766H55.4863V4.8021H58.862Z" fill="black"/>
<path d="M60.208 7.06037V4.8021H62.2276V3.84818C62.2276 2.75798 62.569 1.86246 63.252 1.16162C63.9349 0.460773 64.9691 0.120087 66.3447 0.120087C66.6472 0.120087 66.9496 0.129821 67.2521 0.159023C67.5545 0.178491 67.8472 0.207692 68.1301 0.217426V2.73851C67.7301 2.68984 67.3204 2.67037 66.8911 2.67037C66.4325 2.67037 66.1008 2.77745 65.9057 2.99159C65.7106 3.20574 65.613 3.56589 65.613 4.07206V4.81183H67.9448V7.0701H65.613V17.096H62.2276V7.0701H60.208V7.06037Z" fill="black"/>
<path d="M70.228 2.90399V0.120087H73.6037V2.90399H70.228ZM73.6135 4.8021V17.0766H70.228V4.8021H73.6135Z" fill="black"/>
<path d="M78.9403 14.137C79.4476 14.6237 80.1794 14.8767 81.1257 14.8767C81.8087 14.8767 82.3941 14.7113 82.8916 14.3706C83.3794 14.0299 83.6819 13.6697 83.799 13.2901H86.7746C86.2966 14.7599 85.5648 15.8209 84.5892 16.4536C83.6038 17.0863 82.4136 17.4076 81.0184 17.4076C80.0525 17.4076 79.1745 17.2518 78.4037 16.9403C77.6232 16.6289 76.9695 16.1908 76.4232 15.6263C75.8866 15.0617 75.4671 14.3803 75.1744 13.5821C74.8817 12.7937 74.7354 11.9176 74.7354 10.9734C74.7354 10.0585 74.8915 9.20188 75.1841 8.41343C75.4866 7.59578 75.9159 6.91441 76.472 6.3401C77.0281 5.7658 77.6915 5.30831 78.4623 4.97736C79.233 4.6464 80.0818 4.48093 81.0184 4.48093C82.0623 4.48093 82.9794 4.68534 83.7599 5.08443C84.5404 5.49325 85.1746 6.02862 85.6722 6.70999C86.1697 7.39137 86.5307 8.17008 86.7551 9.0364C86.9795 9.90272 87.0576 10.8177 86.999 11.7716H78.1208C78.1598 12.8521 78.433 13.6503 78.9403 14.137ZM82.7648 7.68339C82.3648 7.24536 81.7404 7.02148 80.9208 7.02148C80.3842 7.02148 79.9355 7.10909 79.5745 7.29403C79.2135 7.47897 78.9306 7.70285 78.7159 7.96567C78.5013 8.23822 78.3549 8.5205 78.2671 8.82225C78.1793 9.12401 78.1305 9.38682 78.111 9.63017H83.6038C83.4477 8.77358 83.1648 8.12141 82.7648 7.68339Z" fill="black"/>
<path d="M97.2529 15.5192C96.8529 16.1811 96.3358 16.6678 95.6919 16.9598C95.0479 17.2518 94.326 17.3978 93.5162 17.3978C92.5991 17.3978 91.7893 17.2226 91.0869 16.8625C90.3844 16.5023 89.8088 16.0254 89.36 15.4121C88.9112 14.7989 88.5698 14.098 88.3356 13.3096C88.1015 12.5211 87.9941 11.6938 87.9941 10.8372C87.9941 10.0098 88.1112 9.22134 88.3356 8.45237C88.56 7.68339 88.9112 7.01175 89.36 6.41798C89.8088 5.83394 90.3844 5.35698 91.0576 5.00656C91.7406 4.64641 92.5308 4.4712 93.4382 4.4712C94.1699 4.4712 94.8626 4.62694 95.5162 4.93842C96.1797 5.24991 96.6968 5.69767 97.0773 6.30117H97.126V0.129868H100.502V17.0864H97.2919V15.5192H97.2529ZM97.1065 9.44523C97.009 8.978 96.8529 8.56917 96.6187 8.20902C96.3846 7.84886 96.0919 7.56658 95.7211 7.3427C95.3602 7.11882 94.8918 7.01175 94.3455 7.01175C93.7991 7.01175 93.3211 7.11882 92.9406 7.3427C92.5601 7.56658 92.2576 7.8586 92.0235 8.21875C91.7991 8.57891 91.6332 8.99747 91.5259 9.46469C91.4186 9.93192 91.3698 10.4186 91.3698 10.9248C91.3698 11.4017 91.4284 11.8787 91.5357 12.3459C91.643 12.8229 91.8284 13.2415 92.0723 13.6211C92.3162 13.991 92.6284 14.2927 92.9991 14.5263C93.3699 14.7599 93.8187 14.867 94.3455 14.867C94.9016 14.867 95.3602 14.7599 95.7406 14.5361C96.1114 14.3122 96.4138 14.0202 96.6382 13.6405C96.8626 13.2707 97.0187 12.8424 97.1163 12.3751C97.2139 11.8982 97.2626 11.4115 97.2626 10.9053C97.2529 10.3991 97.2041 9.91245 97.1065 9.44523Z" fill="black"/>
<path d="M14.7634 147.443C14.5975 146.255 13.456 145.35 12.1487 145.35C9.78765 145.35 8.89983 147.355 8.89983 149.448C8.89983 151.434 9.78765 153.439 12.1487 153.439C13.7585 153.439 14.6658 152.339 14.8609 150.762H17.4171C17.1439 153.741 15.0853 155.649 12.1487 155.649C8.44128 155.649 6.26562 152.884 6.26562 149.448C6.26562 145.905 8.44128 143.141 12.1487 143.141C14.7829 143.141 16.9878 144.679 17.3098 147.443H14.7634Z" fill="black"/>
<path d="M22.9098 146.489C25.6415 146.489 27.3977 148.29 27.3977 151.054C27.3977 153.799 25.6415 155.6 22.9098 155.6C20.1975 155.6 18.4316 153.789 18.4316 151.054C18.4316 148.3 20.1975 146.489 22.9098 146.489ZM22.9098 153.819C24.5391 153.819 25.0171 152.427 25.0171 151.064C25.0171 149.672 24.5293 148.29 22.9098 148.29C21.3 148.29 20.8122 149.682 20.8122 151.064C20.8122 152.427 21.3 153.819 22.9098 153.819Z" fill="black"/>
<path d="M28.8711 146.713H31.1346V148.319H31.1736C31.6029 147.229 32.7834 146.479 33.9444 146.479C34.1102 146.479 34.3151 146.508 34.4615 146.557V148.767C34.2371 148.718 33.8858 148.689 33.6029 148.689C31.8565 148.689 31.2516 149.945 31.2516 151.463V155.357H28.8711V146.713Z" fill="black"/>
<path d="M35.3882 146.723H37.6516V147.823H37.6809C38.2468 146.908 39.1834 146.489 40.2566 146.489C42.9786 146.489 44.1981 148.679 44.1981 151.132C44.1981 153.439 42.9298 155.6 40.3932 155.6C39.359 155.6 38.3638 155.152 37.798 154.296H37.759V158.413H35.3784V146.723H35.3882ZM41.8176 151.074C41.8176 149.701 41.2615 148.28 39.7395 148.28C38.1785 148.28 37.6809 149.672 37.6809 151.074C37.6809 152.475 38.2175 153.819 39.759 153.819C41.32 153.819 41.8176 152.475 41.8176 151.074Z" fill="black"/>
<path d="M49.4176 146.489C52.1494 146.489 53.9153 148.29 53.9153 151.054C53.9153 153.799 52.1494 155.6 49.4176 155.6C46.7054 155.6 44.9492 153.789 44.9492 151.054C44.9492 148.3 46.7054 146.489 49.4176 146.489ZM49.4176 153.819C51.0469 153.819 51.5347 152.427 51.5347 151.064C51.5347 149.672 51.0469 148.29 49.4176 148.29C47.8078 148.29 47.32 149.682 47.32 151.064C47.3298 152.427 47.8176 153.819 49.4176 153.819Z" fill="black"/>
<path d="M55.3887 146.713H57.6521V148.319H57.6912C58.1204 147.229 59.3009 146.479 60.4522 146.479C60.618 146.479 60.8229 146.508 60.9693 146.557V148.767C60.7546 148.718 60.4034 148.689 60.1107 148.689C58.3643 148.689 57.7594 149.945 57.7594 151.463V155.357H55.3789V146.713H55.3887Z" fill="black"/>
<path d="M61.6716 149.38C61.8082 147.151 63.7985 146.489 65.7498 146.489C67.4766 146.489 69.5547 146.869 69.5547 148.942V153.439C69.5547 154.227 69.6328 155.006 69.8572 155.366H67.4376C67.3595 155.094 67.2815 154.812 67.2717 154.529C66.5205 155.318 65.418 155.6 64.3546 155.6C62.7156 155.6 61.4082 154.782 61.4082 153.011C61.4082 151.054 62.8814 150.587 64.3546 150.383C65.8181 150.168 67.1742 150.217 67.1742 149.244C67.1742 148.222 66.462 148.076 65.6327 148.076C64.7253 148.076 64.14 148.446 64.0522 149.38H61.6716ZM67.1644 151.142C66.7547 151.492 65.9254 151.512 65.1839 151.648C64.4424 151.794 63.779 152.047 63.779 152.923C63.779 153.809 64.4619 154.023 65.2424 154.023C67.0961 154.023 67.1742 152.553 67.1742 152.037V151.142H67.1644Z" fill="black"/>
<path d="M74.3547 146.723H76.1011V148.309H74.3547V152.592C74.3547 153.4 74.5596 153.595 75.3596 153.595C75.6133 153.595 75.8475 153.575 76.1011 153.527V155.386C75.7011 155.454 75.1743 155.473 74.706 155.473C73.2523 155.473 71.9742 155.133 71.9742 153.42V148.319H70.5303V146.732H71.9742V144.143H74.3547V146.723Z" fill="black"/>
<path d="M80.277 145.389H77.8965V143.433H80.277V145.389ZM77.8965 146.723H80.277V155.366H77.8965V146.723Z" fill="black"/>
<path d="M86.3453 146.489C89.0771 146.489 90.843 148.29 90.843 151.054C90.843 153.799 89.0771 155.6 86.3453 155.6C83.6331 155.6 81.877 153.789 81.877 151.054C81.877 148.3 83.6331 146.489 86.3453 146.489ZM86.3453 153.819C87.9746 153.819 88.4625 152.427 88.4625 151.064C88.4625 149.672 87.9746 148.29 86.3453 148.29C84.7356 148.29 84.2477 149.682 84.2477 151.064C84.2477 152.427 84.7356 153.819 86.3453 153.819Z" fill="black"/>
<path d="M92.375 146.723H94.6385V147.93H94.6872C95.2921 146.956 96.3263 146.489 97.341 146.489C99.8678 146.489 100.512 147.91 100.512 150.052V155.366H98.1312V150.48C98.1312 149.059 97.7117 148.358 96.6092 148.358C95.3116 148.358 94.7653 149.078 94.7653 150.84V155.376H92.3848V146.723H92.375Z" fill="black"/>
</g>
<defs>
<clipPath id="clip0_1061_494">
<rect width="107" height="156" fill="white"/>
</clipPath>
</defs>
</svg>
