<svg width="80" height="45" viewBox="0 0 80 45" fill="none" xmlns="http://www.w3.org/2000/svg">
<path d="M79.9048 34.0516C80.001 35.8907 79.6447 37.7252 78.8672 39.3944C77.9204 41.3591 76.3157 42.93 74.3317 43.8342C71.7421 44.6905 69.0217 45.0825 66.2958 44.9923C65.6157 44.9923 64.9681 44.9923 64.3505 44.9598H52.8818C52.6222 44.9626 52.3626 44.9517 52.1042 44.9273C51.8241 44.9021 51.5428 44.8913 51.2616 44.8948H51.1641C50.289 44.9273 49.4139 44.8948 48.7013 44.8623C48.6042 44.8547 48.5136 44.8109 48.4473 44.7395C48.3811 44.6682 48.3441 44.5745 48.3438 44.4771V38.1063C48.3438 37.7836 48.3763 36.9156 48.3763 36.2078V35.1447L48.3438 25.8774V14.7741C48.3761 14.4105 48.3761 14.0447 48.3438 13.6811C48.3113 13.2959 48.3438 12.8756 48.3438 12.4304C48.3763 11.6575 48.3763 10.8546 48.3763 10.1467V10.0767C48.3818 9.98091 48.4206 9.89007 48.4858 9.81977C48.5511 9.74947 48.6388 9.70411 48.7338 9.69148H64.9356C65.7132 9.65896 66.6533 9.69148 67.4959 9.724C68.1474 9.72929 68.7975 9.78279 69.4411 9.88408C70.6459 9.98216 71.8182 10.3235 72.8874 10.8876C73.9566 11.4516 74.9004 12.2266 75.6618 13.1658C76.4736 14.3184 77.0459 15.6223 77.3445 17.0003C77.5006 17.7619 77.5444 18.5422 77.4745 19.3165C77.3848 20.3444 77.1104 21.3477 76.6644 22.278C76.1133 23.3081 75.2966 24.1718 74.2992 24.7793L74.2666 24.8118L73.9416 24.9719C74.3942 25.197 74.8167 25.4222 75.2368 25.6798C76.8041 26.705 78.0859 28.1113 78.9622 29.7669C79.5194 30.8831 79.8588 32.0954 79.9623 33.3388V33.3713C79.9583 33.4906 79.9692 33.6099 79.9948 33.7265C80.0273 33.854 79.8973 33.9516 79.8973 34.0491M55.2395 39.0367H55.8546L58.6724 39.0693L61.8478 39.1018C62.7879 39.1668 63.5655 39.1343 64.6981 39.1343H65.4107C65.9607 39.1343 66.4808 39.1018 67.0308 39.0693C67.9375 39.061 68.8307 38.8485 69.6441 38.4475C70.4574 38.0465 71.17 37.4674 71.7289 36.753C72.1406 36.0724 72.4158 35.3179 72.539 34.5319C72.7279 33.4628 72.5453 32.3611 72.0214 31.4103C71.6279 30.6657 71.0746 30.0173 70.4012 29.5118C70.2785 29.4248 70.1479 29.3494 70.0112 29.2867C69.6986 29.1307 69.3732 29.0018 69.0386 28.9015C68.5639 28.7481 68.0759 28.6401 67.5809 28.5788C66.0582 28.4187 63.758 28.3862 62.1703 28.3862H59.2975C57.7748 28.3862 56.3822 28.4187 55.377 28.3862H55.2145C55.2145 28.934 55.182 29.7044 55.182 30.1246V30.5748C55.2145 31.893 55.247 35.4349 55.247 36.3679V39.0392L55.2395 39.0367ZM70.0287 17.9608C69.1536 15.5795 67.0808 15.3544 63.743 15.2569H62.6729C61.3777 15.2894 58.9224 15.3219 57.0997 15.3544L55.2845 15.3869V19.2164C55.2845 19.6341 55.2845 20.1169 55.317 20.6322V22.4331H55.7071C56.0646 22.4331 57.2073 22.4656 58.2999 22.4656H63.5805C65.042 22.5167 66.5035 22.3652 67.9234 22.0154C68.4404 21.8508 68.9156 21.576 69.3161 21.21C69.4215 21.1099 69.5193 21.002 69.6086 20.8873L69.7061 20.7597C69.9079 20.4761 70.0608 20.1608 70.1587 19.8267C70.2285 19.202 70.1845 18.5698 70.0287 17.9608ZM38.0726 9.78653C38.0402 9.71918 37.9895 9.66234 37.9262 9.62253C37.863 9.58271 37.7898 9.56153 37.7151 9.56141H30.3943C30.3313 9.56063 30.2691 9.57472 30.2126 9.60253C30.1561 9.63035 30.107 9.67111 30.0692 9.7215C27.4637 13.5105 25.1668 17.5029 23.201 21.6602C21.614 25.0662 20.2192 28.5585 19.023 32.1206C17.826 28.5584 16.4303 25.0661 14.8425 21.6602C12.8955 17.4926 10.5969 13.4986 7.97179 9.7215C7.93402 9.67111 7.8849 9.63035 7.82842 9.60253C7.77194 9.57472 7.7097 9.56063 7.64675 9.56141H0.390943C0.316222 9.56153 0.243047 9.58271 0.179809 9.62253C0.11657 9.66234 0.0658288 9.71918 0.0334029 9.78653C0.00673932 9.85405 -0.00419162 9.92676 0.00144045 9.99914C0.00707252 10.0715 0.0291195 10.1417 0.0659065 10.2042C3.57306 14.6205 6.54258 19.4385 8.91189 24.5567C11.9024 30.9821 14.1424 37.731 15.5876 44.6697C15.6041 44.7583 15.6535 44.8374 15.7258 44.8912C15.7981 44.945 15.8881 44.9695 15.9777 44.9598H22.1309C22.2184 44.9588 22.3035 44.9302 22.3739 44.8781C22.4444 44.826 22.4967 44.7531 22.5234 44.6697C23.9898 37.7325 26.2403 30.9848 29.2316 24.5567C31.6092 19.45 34.5665 14.6342 38.0451 10.2042C38.0886 10.1443 38.1143 10.0733 38.1192 9.99936C38.124 9.92545 38.1079 9.85166 38.0726 9.78653ZM13.7724 4.66887C14.3829 4.66166 14.966 4.41485 15.3963 3.98161C15.8265 3.54836 16.0695 2.96337 16.0727 2.35266C16.0855 1.75003 15.8617 1.16637 15.4493 0.726918C15.0369 0.287464 14.4687 0.0272192 13.8667 0.00201651C13.2647 -0.0231862 12.6768 0.188661 12.2292 0.592109C11.7815 0.995556 11.5097 1.55846 11.4722 2.16006V2.32015C11.4688 2.93589 11.7086 3.52807 12.1393 3.9679C12.5701 4.40773 13.157 4.65965 13.7724 4.66887ZM24.3686 4.66887C24.6717 4.66788 24.9716 4.60719 25.2512 4.49026C25.5308 4.37333 25.7846 4.20244 25.9982 3.98736C26.2118 3.77228 26.381 3.51722 26.4961 3.23674C26.6111 2.95626 26.6698 2.65585 26.6689 2.35266C26.6817 1.75003 26.4579 1.16637 26.0455 0.726918C25.6331 0.287464 25.0649 0.0272192 24.4629 0.00201651C23.8609 -0.0231862 23.273 0.188661 22.8253 0.592109C22.3777 0.995556 22.1059 1.55846 22.0684 2.16006V2.32015C22.0641 2.62578 22.1203 2.92925 22.2338 3.21304C22.3473 3.49684 22.5158 3.75536 22.7296 3.97369C22.9434 4.19203 23.1983 4.36586 23.4796 4.48517C23.7609 4.60449 24.0631 4.66692 24.3686 4.66887ZM56.0571 4.66887C56.6642 4.6603 57.2432 4.41202 57.668 3.97814C58.0928 3.54426 58.3289 2.95998 58.3249 2.35266C58.3377 1.75003 58.1139 1.16637 57.7015 0.726918C57.2891 0.287464 56.7209 0.0272192 56.1189 0.00201651C55.5169 -0.0231862 54.929 0.188661 54.4814 0.592109C54.0337 0.995556 53.7619 1.55846 53.7244 2.16006V2.32015C53.7211 2.62824 53.779 2.93392 53.8949 3.2194C54.0107 3.50488 54.1822 3.76445 54.3993 3.98302C54.6164 4.20158 54.8747 4.37478 55.1594 4.49252C55.444 4.61027 55.7491 4.67021 56.0571 4.66887ZM66.6208 4.66887C67.2312 4.66166 67.8144 4.41485 68.2446 3.98161C68.6749 3.54836 68.9178 2.96337 68.9211 2.35266C68.9339 1.75003 68.7101 1.16637 68.2977 0.726918C67.8853 0.287464 67.3171 0.0272192 66.7151 0.00201651C66.1131 -0.0231862 65.5252 0.188661 65.0775 0.592109C64.6299 0.995556 64.3581 1.55846 64.3205 2.16006V2.32015C64.3172 2.93589 64.5569 3.52807 64.9877 3.9679C65.4185 4.40773 66.0054 4.65965 66.6208 4.66887Z" fill="#2C2C2C"/>
</svg>
