<svg width="24" height="24" viewBox="0 0 24 24" fill="none" xmlns="http://www.w3.org/2000/svg">
<path d="M18 19.5C17.6022 19.5 17.2206 19.342 16.9393 19.0607C16.658 18.7794 16.5 18.3978 16.5 18C16.5 17.6022 16.658 17.2206 16.9393 16.9393C17.2206 16.658 17.6022 16.5 18 16.5C18.3978 16.5 18.7794 16.658 19.0607 16.9393C19.342 17.2206 19.5 17.6022 19.5 18C19.5 18.3978 19.342 18.7794 19.0607 19.0607C18.7794 19.342 18.3978 19.5 18 19.5ZM19.5 10.5L21.46 13H17V10.5M6 19.5C5.60218 19.5 5.22064 19.342 4.93934 19.0607C4.65804 18.7794 4.5 18.3978 4.5 18C4.5 17.6022 4.65804 17.2206 4.93934 16.9393C5.22064 16.658 5.60218 16.5 6 16.5C6.39782 16.5 6.77936 16.658 7.06066 16.9393C7.34196 17.2206 7.5 17.6022 7.5 18C7.5 18.3978 7.34196 18.7794 7.06066 19.0607C6.77936 19.342 6.39782 19.5 6 19.5ZM20 9H17V5H3C1.89 5 1 5.89 1 7V18H3C3 18.7956 3.31607 19.5587 3.87868 20.1213C4.44129 20.6839 5.20435 21 6 21C6.79565 21 7.55871 20.6839 8.12132 20.1213C8.68393 19.5587 9 18.7956 9 18H15C15 18.7956 15.3161 19.5587 15.8787 20.1213C16.4413 20.6839 17.2044 21 18 21C18.7956 21 19.5587 20.6839 20.1213 20.1213C20.6839 19.5587 21 18.7956 21 18H23V13L20 9Z" fill="#2C2C2C"/>
</svg>
