<svg width="192" height="48" viewBox="0 0 192 48" fill="none" xmlns="http://www.w3.org/2000/svg">
<path d="M88.6794 29.3968C88.6794 29.4485 88.6746 29.5048 88.6794 29.5377C88.6794 29.5471 88.6794 29.5565 88.6794 29.5659L88.6602 30.8957C88.6602 30.8957 88.6602 30.9051 88.6602 30.9098C88.6554 30.9662 88.6554 31.0273 88.6602 31.0837C88.6602 31.1777 88.6602 31.2764 88.6265 31.375C88.6121 31.4079 88.5929 31.4361 88.5592 31.4549C88.4632 31.516 88.3478 31.5254 88.271 31.5254C88.2277 31.5254 88.1797 31.5254 88.1364 31.5207C88.0884 31.5207 88.0355 31.5113 87.9923 31.5207L86.618 31.5395H86.6084C86.4594 31.5348 81.491 31.516 79.492 31.516C79.3335 31.516 79.1893 31.516 79.0404 31.516C78.9443 31.516 78.853 31.516 78.7617 31.516C78.5599 31.516 78.4061 31.516 78.2667 31.5066C78.1899 31.5066 78.0986 31.5066 78.0073 31.516C77.9256 31.5207 77.8391 31.5301 77.7574 31.5301C77.6084 31.5301 77.4979 31.5113 77.4114 31.4643C77.349 31.4267 77.2096 31.3421 77.2673 30.6655V28.2079C77.2673 28.0294 77.2673 27.5971 77.2673 27.0661C77.2673 25.8349 77.2769 24.1527 77.2817 23.7815C77.2817 23.7486 77.2817 23.6123 77.2817 23.4385C77.2817 22.7101 77.2817 22.4423 77.2913 22.3671V21.4414C77.2913 21.3051 77.2913 20.8211 77.2913 20.3325C77.2913 19.8109 77.2913 19.294 77.2913 19.2V18.9087C77.2913 18.2414 77.2913 16.9962 77.3105 16.6579C77.3153 16.578 77.3778 16.5169 77.4547 16.5028C77.5123 16.4934 77.7094 16.484 78.7376 16.484C79.5833 16.484 80.6645 16.4887 81.4045 16.4934H81.6928H82.9469C83.2688 16.4934 83.7638 16.4934 84.2539 16.4934C84.7488 16.4934 85.2389 16.4934 85.5609 16.4934H85.5753C86.1183 16.484 87.1129 16.4746 87.7184 16.4746C88.0643 16.4746 88.1508 16.4793 88.1893 16.484C88.2758 16.4887 88.343 16.5592 88.343 16.6438C88.343 16.686 88.343 16.7236 88.3526 16.7659C88.3574 16.8552 88.3671 16.9492 88.3574 17.0714C88.3574 17.1559 88.3574 17.2875 88.3574 17.4191C88.3622 17.6258 88.3719 17.8373 88.3526 17.9971C88.343 18.0816 88.3526 18.1897 88.3526 18.3025C88.3622 18.4858 88.3719 18.6925 88.319 18.8711C88.3046 18.9228 88.2661 18.9604 88.2133 18.9791C88.146 19.0026 88.0788 19.0073 88.0307 19.0073C88.0115 19.0073 87.9922 19.0073 87.973 19.0073C87.9394 19.0073 87.9058 19.0073 87.8721 19.0073C87.7232 19.0214 87.0985 19.0308 85.9068 19.0308C85.2678 19.0308 84.5758 19.0308 83.9992 19.0308C83.3553 19.0308 82.8508 19.0308 82.7355 19.0308C82.5817 19.0308 82.428 19.0308 82.2694 19.0308C82.0868 19.0308 81.9042 19.0261 81.7408 19.0308C81.6111 19.0355 81.4429 19.0402 81.2171 19.0402C81.0825 19.0402 80.9432 19.0402 80.8086 19.0402C80.6309 19.0402 80.4579 19.0402 80.3137 19.0402C80.2993 19.5806 80.3041 21.2628 80.3425 21.822C80.9047 21.8502 83.3601 21.8596 84.4653 21.8596C85.0179 21.8596 85.263 21.8596 85.3014 21.8596C85.6906 21.8784 86.0942 21.8831 86.3441 21.869L87.6463 21.8784C87.7328 21.8784 87.8097 21.9442 87.8145 22.0335C87.8193 22.1181 87.8241 22.1932 87.8241 22.2778C87.8241 22.3389 87.8241 22.4094 87.8337 22.4799C87.8481 22.7289 87.8433 22.9874 87.8337 23.2552C87.8337 23.3727 87.8289 23.4996 87.8241 23.6311C87.8241 23.7815 87.8241 24.1903 87.8241 24.1903C87.8241 24.2373 87.8049 24.2796 87.776 24.3125C87.7424 24.3454 87.6991 24.3642 87.6511 24.3595C87.6511 24.3595 87.3243 24.3595 87.2379 24.3595C87.2379 24.3595 87.2282 24.3595 87.2234 24.3595C86.7045 24.3595 85.0131 24.3595 84.917 24.3689H84.9026C84.7584 24.3689 84.4509 24.3642 84.1434 24.3595C83.8214 24.3595 83.4947 24.3548 83.3457 24.3501C83.1151 24.3501 82.6826 24.3548 82.2886 24.3548C81.9474 24.3548 81.5486 24.3548 81.4573 24.3501C81.2555 24.3548 81.0249 24.3548 80.7942 24.3595C80.6309 24.3595 80.4675 24.3595 80.3137 24.3595C80.3185 24.8435 80.2993 25.8866 80.2945 26.3095V26.4082C80.2945 26.4505 80.2945 26.5539 80.2897 26.8217C80.2849 27.254 80.2753 27.9777 80.2897 28.175C80.2993 28.2784 80.2897 28.3959 80.2897 28.5134C80.2849 28.6261 80.2753 28.7718 80.2897 28.8611C80.3377 28.8658 80.3906 28.8705 80.4483 28.8705H80.578C80.6164 28.8705 80.6597 28.8705 80.6981 28.8705C80.9432 28.8705 81.6015 28.8799 81.9234 28.8799C82.0003 28.8799 82.058 28.8799 82.082 28.8799C82.6778 28.8799 83.437 28.8893 84.1962 28.894C84.9554 28.894 85.7146 28.8987 86.3057 28.9081H87.8721C87.8721 28.9081 87.8865 28.9081 87.8913 28.9081C87.9394 28.9128 87.9971 28.9081 88.0547 28.8987C88.1076 28.8987 88.1652 28.8893 88.2181 28.8893C88.319 28.8893 88.3959 28.9034 88.4632 28.9363C88.6506 29.0256 88.6361 29.2417 88.6265 29.3968H88.6794ZM45.669 31.2717C45.693 31.3233 45.6882 31.3797 45.6594 31.4267C45.6306 31.4737 45.5825 31.5019 45.5248 31.5066C45.5104 31.5066 45.0491 31.5348 44.7272 31.5254H43.4923H43.4587C43.3818 31.5254 43.3097 31.5254 43.2376 31.5254C43.1703 31.5254 43.1031 31.5254 43.0358 31.5254C42.8916 31.5254 42.7811 31.5254 42.685 31.516C42.6322 31.5113 42.5841 31.4831 42.5553 31.4361C42.4736 31.3093 42.3583 31.0508 42.2045 30.6702C42.1132 30.4399 42.0219 30.1956 41.9258 29.9372C41.7721 29.5283 41.6135 29.1054 41.4501 28.7389C41.2243 28.7389 41.0129 28.753 40.8062 28.7577C40.614 28.7671 40.4218 28.7718 40.2248 28.7765C39.9173 28.7812 38.9515 28.7953 38.5767 28.7859C38.3028 28.7765 37.9905 28.7812 37.6781 28.7859C37.3754 28.7859 37.0727 28.7859 36.7844 28.7859L35.7225 28.7765H35.6792C35.6215 28.7765 35.5639 28.7765 35.5158 28.7765C35.4053 29.0443 35.2612 29.3968 35.2323 29.486C35.1651 29.7257 35.0593 29.9794 34.9536 30.2285C34.8912 30.3836 34.8287 30.5339 34.7758 30.6796C34.7518 30.7454 34.7278 30.8159 34.7038 30.8816C34.6413 31.0696 34.574 31.267 34.4779 31.4502C34.4491 31.5066 34.3914 31.5442 34.329 31.5442C34.1608 31.5442 34.0407 31.5489 33.9253 31.5489C33.81 31.5489 33.7091 31.5489 33.5794 31.5489H33.4208C33.2334 31.5489 33.0412 31.5489 32.8442 31.5489C32.6184 31.5489 32.3973 31.5489 32.1763 31.5489C32.1715 31.5489 32.1667 31.5489 32.1619 31.5489C32.085 31.5442 31.9841 31.5442 31.8736 31.5395C31.7582 31.5395 31.6381 31.5395 31.5228 31.5301C31.4699 31.5301 31.4171 31.4972 31.3931 31.4502C31.3642 31.4032 31.3594 31.3515 31.3786 31.2999C31.5276 30.9521 31.7679 30.3413 31.8447 30.1251C31.9505 29.8197 32.0562 29.533 32.1571 29.2511C32.2243 29.0631 32.2964 28.8799 32.3637 28.6872C32.3829 28.6261 32.4502 28.4523 32.5415 28.2314C32.6712 27.9025 32.8298 27.4984 32.8826 27.3292C32.9932 26.9627 33.1421 26.6056 33.2767 26.272C33.3055 26.1968 33.5794 25.4731 33.6995 25.163L33.7524 25.022C33.8196 24.8388 33.8821 24.6508 33.9446 24.4769C34.0359 24.1997 34.132 23.9131 34.2569 23.6264L34.3242 23.4714C34.4107 23.274 34.502 23.0673 34.5644 22.884C34.6846 22.5081 34.8383 22.1416 34.9825 21.7844C35.1218 21.4414 35.266 21.0843 35.3813 20.7319C35.8378 19.341 36.4 17.9689 36.9814 16.5733C37.0054 16.5122 37.0631 16.4746 37.1303 16.4699C37.212 16.4652 37.2889 16.4652 37.3802 16.4652H37.6253C37.7262 16.4652 37.8511 16.4652 38.0097 16.4652C38.5815 16.4652 39.2878 16.4652 39.8356 16.4981C39.9077 16.4981 39.9653 16.5498 39.9846 16.6109C40.0759 16.8881 40.6333 18.2931 40.9312 19.0496C41.0417 19.3316 41.1234 19.5336 41.133 19.5665L41.1762 19.6887C41.2771 19.9659 41.3829 20.2526 41.4934 20.5392C41.5462 20.6802 41.676 21.0044 41.8538 21.4414C42.4544 22.9404 43.5692 25.7269 43.9584 26.9016C43.9872 26.9956 44.3476 27.9448 44.5014 28.3066C44.5254 28.363 44.6263 28.6308 44.7464 28.941C44.8521 29.2135 44.9626 29.5142 45.0299 29.6787C45.0924 29.8103 45.3807 30.5809 45.4672 30.8253C45.5104 30.9474 45.6594 31.2811 45.6594 31.2858L45.669 31.2717ZM40.5227 26.1874C40.3978 25.8209 40.2825 25.506 40.172 25.2194C40.1527 25.1583 40.1335 25.1066 40.1191 25.0596C40.1047 25.0173 40.0951 24.9844 40.0855 24.9562L39.8068 24.242C39.6578 23.8144 39.4993 23.3962 39.3455 22.9921C39.1389 22.447 38.9226 21.8784 38.7352 21.3051L38.4469 20.3465C38.4037 20.4875 38.3556 20.6285 38.3172 20.7601C38.2643 20.9292 38.2067 21.0984 38.149 21.2722C38.0625 21.5213 37.976 21.775 37.904 22.0335C37.904 22.0382 37.904 22.0429 37.8992 22.0476L37.6733 22.6162C37.6349 22.7242 37.5916 22.837 37.5532 22.9498C37.4859 23.1518 37.4138 23.3539 37.3274 23.5512C37.3081 23.6123 37.2553 23.7627 37.1159 24.1339C37.0487 24.3125 36.9862 24.4863 36.9477 24.5897C36.9237 24.6602 36.9045 24.7307 36.8901 24.8059C36.8709 24.8952 36.8468 24.9891 36.8084 25.0878C36.7507 25.2382 36.6931 25.3979 36.6402 25.5624C36.573 25.7504 36.5057 25.9477 36.4288 26.1404C36.4192 26.1686 36.4048 26.1968 36.3904 26.225C36.3759 26.2532 36.3615 26.286 36.3519 26.3142C36.4769 26.3236 36.6114 26.3236 36.7796 26.3236C36.8949 26.3236 37.0054 26.3236 37.1255 26.3236C37.2505 26.3236 37.3754 26.3236 37.5003 26.3236H37.5772C37.6829 26.3236 37.7983 26.3236 37.9136 26.3283C38.1394 26.333 38.3797 26.3424 38.6199 26.3283H39.1821C39.4272 26.3283 39.7059 26.3189 39.9702 26.3142C40.172 26.3095 40.3738 26.3048 40.5708 26.3001C40.5564 26.2626 40.5468 26.2203 40.5275 26.1733L40.5227 26.1874ZM161.02 30.2379L160.64 29.5377C160.458 29.2135 160.256 28.8799 160.059 28.5557C159.91 28.3066 159.756 28.0576 159.617 27.8132C159.598 27.7756 159.559 27.7145 159.516 27.6394C159.367 27.3856 159.093 26.9204 159.021 26.7747C159.007 26.7419 158.963 26.6667 158.747 26.2907C158.574 25.9947 158.358 25.6235 158.233 25.4026L158.175 25.2946C158.094 25.1395 158.012 24.9938 157.921 24.8482C157.815 24.6273 157.2 23.5325 156.96 23.1189C156.902 23.0203 156.835 22.9216 156.768 22.8088C156.595 22.541 156.398 22.2355 156.311 21.9536C156.35 21.9113 156.398 21.8643 156.441 21.8267C156.465 21.8032 156.484 21.7844 156.503 21.7656C156.628 21.6435 156.739 21.5119 156.844 21.3897C156.936 21.2816 157.027 21.1736 157.128 21.0702C157.219 20.9762 157.296 20.8775 157.368 20.7789C157.416 20.7131 157.469 20.6473 157.522 20.5862C157.589 20.511 157.656 20.4358 157.729 20.3606C157.839 20.2385 157.959 20.1163 158.065 19.9753C158.132 19.8907 158.411 19.59 158.68 19.2987C158.968 18.9885 159.261 18.669 159.406 18.4999C159.617 18.2508 159.838 18.0112 160.078 17.7527C160.381 17.4285 160.698 17.0902 160.977 16.7377C161.015 16.686 161.025 16.6203 160.996 16.5639C160.967 16.5075 160.91 16.4699 160.842 16.4699C160.689 16.4699 160.544 16.4652 160.41 16.4605C160.266 16.4605 160.136 16.4558 160.021 16.4511H158.291C157.988 16.4464 157.729 16.4511 157.498 16.4746C157.455 16.4793 157.411 16.4981 157.383 16.5357C157.32 16.6062 157.262 16.6767 157.2 16.7518C157.138 16.827 157.07 16.9022 157.003 16.9774C156.95 17.0385 156.892 17.0949 156.84 17.1559C156.7 17.3157 156.547 17.4802 156.402 17.6352C156.205 17.8467 155.999 18.0675 155.821 18.2884L154.841 19.341C154.841 19.341 154.831 19.3504 154.831 19.3551C154.677 19.5571 154.504 19.7357 154.322 19.9283C154.226 20.027 154.13 20.1304 154.033 20.2338C153.428 20.9057 152.851 21.5401 152.313 22.1228C152.308 21.9113 152.299 21.6623 152.294 21.4884V21.385C152.289 21.3004 152.294 21.2112 152.294 21.1125C152.294 20.948 152.294 20.7601 152.284 20.5862L152.265 17.9783C152.256 17.7715 152.26 17.5742 152.265 17.3815C152.265 17.1137 152.27 16.8646 152.241 16.6438C152.232 16.5827 152.188 16.5263 152.126 16.5075C152.015 16.4699 151.895 16.4652 151.804 16.4652C151.77 16.4652 151.732 16.4652 151.698 16.4652C151.636 16.4652 151.583 16.4652 151.501 16.4652C151.367 16.4652 151.141 16.4652 150.886 16.4652C150.439 16.4652 149.887 16.4652 149.685 16.4511C149.67 16.4511 149.656 16.4511 149.642 16.4511C149.627 16.4511 149.584 16.4511 149.55 16.4511C149.497 16.4511 149.44 16.4511 149.387 16.4605C149.31 16.4793 149.252 16.5451 149.252 16.625C149.252 16.7659 149.252 16.9022 149.248 17.0432C149.248 17.2781 149.238 17.5225 149.248 17.7903V18.5186C149.209 18.9134 149.233 20.6567 149.238 20.8493C149.224 21.0514 149.228 21.2018 149.228 21.3944C149.228 21.4696 149.228 21.5542 149.228 21.6482C149.228 22.5598 149.224 23.4714 149.219 24.383C149.195 24.5615 149.195 25.2288 149.209 26.2485C149.209 26.4129 149.209 26.5398 149.209 26.6009V29.0302C149.209 29.1242 149.209 30.2943 149.228 30.7877C149.228 30.8488 149.228 30.938 149.233 31.032C149.233 31.1589 149.233 31.2952 149.243 31.3844C149.248 31.4737 149.324 31.5395 149.411 31.5395H151.218C151.319 31.5395 151.415 31.5395 151.511 31.5395H152.083C152.169 31.5395 152.241 31.4784 152.251 31.3938C152.27 31.2153 152.26 30.9521 152.251 30.6749C152.241 30.4258 152.232 30.1674 152.251 29.9935C152.251 29.9935 152.251 29.9841 152.251 29.9794L152.275 26.4364C152.275 26.4364 152.304 26.4035 152.323 26.3847C152.352 26.3612 152.376 26.333 152.395 26.3048C152.496 26.1733 152.602 26.0558 152.717 25.9289C152.832 25.8021 152.947 25.6752 153.058 25.5295C153.082 25.5013 153.135 25.4449 153.226 25.3463C153.39 25.163 153.836 24.6649 154.057 24.4628C154.192 24.6696 154.307 24.8952 154.427 25.1348C154.548 25.3698 154.673 25.6141 154.821 25.8443C154.927 26.0088 155.018 26.178 155.11 26.3612C155.177 26.4881 155.244 26.615 155.316 26.7465L155.48 27.0285C155.749 27.4984 156.032 27.9824 156.297 28.4476C156.479 28.7718 156.979 29.6928 157.051 29.8385C157.171 30.0546 157.306 30.2802 157.44 30.4916C157.503 30.5903 157.56 30.689 157.618 30.783C157.656 30.8488 157.69 30.9192 157.729 30.9897C157.82 31.173 157.911 31.3609 158.079 31.4972C158.108 31.5207 158.147 31.5348 158.19 31.5348H160.664C160.703 31.5348 160.761 31.5348 160.828 31.5348C160.881 31.5348 160.943 31.5348 161.001 31.5348C161.179 31.5348 161.553 31.5348 161.577 31.267C161.577 31.2388 161.577 31.2059 161.558 31.1824C161.38 30.8253 161.179 30.5057 161.006 30.2379H161.02ZM175.839 26.1827C175.82 26.1075 175.796 26.037 175.776 25.9571C175.757 25.8866 175.671 25.5859 175.618 25.4825C174.854 23.7815 173.292 23.1471 171.327 22.494C171.164 22.4376 171.01 22.4047 170.866 22.3671C170.731 22.3342 170.592 22.3013 170.443 22.2543C169.905 22.0805 169.208 21.8455 168.583 21.5871C168.252 21.4508 167.786 21.1971 167.574 21.0044C167.353 20.807 167.276 20.6473 167.185 20.3606C167.108 20.1163 167.271 19.7545 167.401 19.5665C167.771 19.0308 168.54 18.7301 169.434 18.7818C170.664 18.8523 171.711 19.4256 172.283 19.933L172.408 20.0411C172.591 20.2009 172.744 20.3372 172.932 20.5486C172.946 20.5674 172.961 20.5862 172.975 20.6003C173.028 20.6661 173.09 20.7413 173.239 20.8822C173.302 20.9433 173.403 20.9433 173.47 20.8869C173.749 20.652 174.047 20.4264 174.335 20.2056C174.508 20.074 174.676 19.9377 174.849 19.8062C174.912 19.7545 175.003 19.684 175.099 19.6088C175.209 19.5242 175.32 19.4396 175.392 19.3833C175.431 19.3504 175.455 19.3034 175.455 19.2517C175.455 19.106 175.354 18.9838 175.282 18.8899C175.267 18.8711 175.253 18.857 175.243 18.8429C175.075 18.5985 174.868 18.3777 174.667 18.1615L174.628 18.1192C174.628 18.1192 174.609 18.1004 174.599 18.0957C174.58 18.0816 174.546 18.0535 174.513 18.0253C174.465 17.983 174.431 17.9548 174.402 17.936C173.422 17.0244 172.461 16.6297 171.14 16.2631C170.645 16.1363 170.308 16.0987 169.741 16.0705L168.92 16.047C168.92 16.047 168.905 16.047 168.9 16.047C168.583 16.0705 168.271 16.0987 167.944 16.1269C167.204 16.2396 166.421 16.5122 165.95 16.8223C164.787 17.5883 163.687 19.1295 164.066 21.1454C164.076 21.1924 164.086 21.2441 164.091 21.291C164.119 21.4508 164.143 21.6153 164.215 21.7797C164.557 22.6021 165.114 23.2646 165.926 23.805C165.936 23.8144 165.95 23.8191 165.964 23.8238C165.979 23.8238 166.008 23.8473 166.032 23.8614C166.065 23.8802 166.104 23.9037 166.137 23.9178C166.378 24.054 166.589 24.1574 166.887 24.2655C166.921 24.2749 166.969 24.2937 167.017 24.3172C167.07 24.3407 167.123 24.3642 167.175 24.3783C167.978 24.7495 168.886 25.022 169.756 25.2852C169.953 25.3463 170.15 25.4026 170.347 25.4637L170.409 25.4825C171.385 25.7833 172.389 26.0934 172.692 26.9909C172.735 27.1225 172.735 27.2775 172.73 27.3856C172.711 27.9307 172.456 28.2079 172.173 28.4711C171.62 28.9786 170.827 29.0866 170.255 29.0866C169.069 29.0866 167.723 28.6261 167.06 27.9918C166.796 27.7427 166.402 27.3621 166.224 27.0332C166.186 26.9627 166.08 26.7888 165.974 26.6197C165.897 26.4975 165.82 26.3659 165.796 26.3283C165.772 26.2907 165.739 26.2579 165.691 26.2485C165.647 26.2391 165.599 26.2438 165.556 26.2673C165.474 26.3189 165.359 26.38 165.253 26.4364C165.128 26.5022 165.023 26.5633 164.975 26.5962C164.754 26.7372 164.533 26.864 164.321 26.9909C164.1 27.1225 163.869 27.254 163.648 27.3997C163.61 27.4279 163.562 27.4561 163.519 27.4843C163.36 27.583 163.178 27.7004 163.048 27.8132C163 27.8555 162.981 27.9213 162.995 27.9824C163.057 28.1985 163.197 28.4006 163.312 28.5604L163.351 28.612C163.778 29.2135 164.143 29.6693 164.758 30.2191C164.802 30.2567 164.85 30.2943 164.898 30.3272C164.927 30.346 164.955 30.3648 164.975 30.3836C165.052 30.4446 165.157 30.5104 165.229 30.5527C165.282 30.5809 165.335 30.6138 165.383 30.6467C165.455 30.689 165.527 30.736 165.604 30.7736C166.205 31.1072 166.777 31.3468 167.348 31.5066C168.237 31.7604 169.275 31.8966 170.284 31.8966C171.351 31.8966 172.312 31.7416 173.066 31.4455C174.162 31.0226 175.022 30.2473 175.488 29.2699C175.628 28.9833 175.728 28.6496 175.82 28.3536C175.873 28.1703 175.906 28.0153 175.94 27.8132C175.988 27.5125 175.988 27.1366 175.988 26.9862C175.969 26.6479 175.897 26.4082 175.829 26.178L175.839 26.1827ZM128.869 23.617C128.908 24.1198 128.888 24.4769 128.831 25.1348C128.807 25.3791 128.754 25.6846 128.73 25.8068C128.59 26.5351 128.336 27.301 128.023 27.9636C127.481 29.1101 126.611 30.0593 125.361 30.8722C125.169 30.9991 124.915 31.1072 124.843 31.1354C124.439 31.3046 124.074 31.4267 123.415 31.5724C123.194 31.6241 122.944 31.6617 122.699 31.704C122.613 31.7181 122.526 31.7322 122.44 31.7463C122.43 31.7463 122.421 31.7463 122.416 31.7463L121.902 31.7557C121.734 31.7698 121.556 31.7791 121.383 31.7791C120.508 31.7791 119.562 31.5865 118.481 31.1918C116.659 30.5292 115.304 29.2417 114.569 27.4702C114.435 27.146 114.339 26.8123 114.242 26.4599C114.199 26.3048 114.156 26.1498 114.108 25.99C114.108 25.9806 114.108 25.9712 114.103 25.9665C114.094 25.9007 114.079 25.8302 114.065 25.7645C114.05 25.6893 114.031 25.6141 114.021 25.5342C113.945 25.1442 113.916 24.7542 113.93 24.1997L113.949 23.5559C113.925 23.1941 113.997 22.5551 114.074 22.2026L114.122 21.9818C114.242 21.4461 114.363 20.8916 114.579 20.4029C115.463 18.3918 117.015 16.921 118.846 16.3759C119.293 16.2443 119.744 16.1692 120.225 16.0893L120.46 16.0517C120.46 16.0517 120.475 16.0517 120.479 16.0517L121.392 16.0047C121.392 16.0047 121.402 16.0047 121.407 16.0047C124.054 16.0846 126.087 17.109 127.447 19.0449C127.754 19.4772 128.072 19.9471 128.278 20.4687C128.456 20.9057 128.605 21.4085 128.72 21.9536C128.72 21.9583 128.72 21.963 128.72 21.9724L128.754 22.2919C128.826 22.5833 128.84 22.9216 128.855 23.2505C128.86 23.3821 128.864 23.509 128.874 23.6311L128.869 23.617ZM124.429 19.8297C123.622 18.9838 122.526 18.5562 121.162 18.5844L120.701 18.6314C120.355 18.6925 120.004 18.8194 119.691 18.9275C119.581 18.9651 119.432 19.0402 119.331 19.1107C119.153 19.2282 119.004 19.3363 118.855 19.4537C118.356 19.8485 117.846 20.5298 117.616 21.1125C116.583 23.7439 117.068 26.77 118.745 28.1515C118.793 28.1938 118.855 28.2267 118.918 28.2596C118.975 28.2925 119.033 28.3254 119.096 28.3724C119.836 28.9081 120.859 29.1947 121.748 29.1007C123.584 28.9128 124.828 27.9119 125.453 26.1263C125.635 25.6094 125.693 24.9703 125.741 24.3642C125.88 22.4752 125.414 20.8634 124.434 19.8297H124.429ZM146.148 23.617C146.187 24.1198 146.168 24.4769 146.11 25.1348C146.086 25.3791 146.033 25.6846 146.009 25.8068C145.87 26.5351 145.615 27.301 145.303 27.9636C144.76 29.1101 143.89 30.0593 142.641 30.8722C142.448 30.9991 142.194 31.1072 142.122 31.1354C141.718 31.3046 141.353 31.4267 140.695 31.5724C140.473 31.6241 140.224 31.6617 139.979 31.704C139.892 31.7181 139.806 31.7322 139.719 31.7463C139.709 31.7463 139.7 31.7463 139.695 31.7463L139.181 31.7557C139.013 31.7698 138.835 31.7791 138.662 31.7791C137.792 31.7791 136.841 31.5865 135.76 31.1918C133.939 30.5292 132.584 29.2417 131.848 27.4702C131.714 27.1413 131.618 26.8123 131.522 26.4599C131.478 26.3048 131.435 26.1451 131.387 25.99C131.387 25.9806 131.387 25.9712 131.382 25.9665C131.373 25.9007 131.358 25.8302 131.344 25.7645C131.329 25.6893 131.31 25.6141 131.301 25.5342C131.224 25.1442 131.195 24.7542 131.209 24.1997L131.228 23.5559C131.204 23.1941 131.277 22.5551 131.353 22.2026L131.401 21.9818C131.522 21.4461 131.642 20.8869 131.858 20.3982C132.742 18.3871 134.294 16.9163 136.125 16.3712C136.572 16.2396 137.023 16.1645 137.504 16.0846L137.739 16.047C137.739 16.047 137.754 16.047 137.759 16.047L138.672 16C138.672 16 138.681 16 138.686 16C141.334 16.0799 143.366 17.1043 144.726 19.0402C145.034 19.4725 145.351 19.9424 145.557 20.464C145.735 20.901 145.884 21.4038 145.999 21.9489C145.999 21.9536 145.999 21.9583 145.999 21.9677L146.033 22.2872C146.105 22.5786 146.119 22.9169 146.134 23.2458C146.139 23.3774 146.143 23.5043 146.153 23.6264L146.148 23.617ZM141.708 19.8297C140.901 18.9838 139.806 18.5562 138.441 18.5844L137.984 18.6314C137.634 18.6925 137.283 18.8194 136.971 18.9275C136.86 18.9651 136.711 19.0402 136.61 19.1107C136.432 19.2282 136.283 19.3363 136.134 19.4537C135.635 19.8485 135.125 20.5298 134.895 21.1125C133.862 23.7439 134.347 26.77 136.024 28.1515C136.072 28.1938 136.134 28.2267 136.197 28.2596C136.255 28.2925 136.312 28.3254 136.375 28.3724C137.115 28.9081 138.138 29.1947 139.027 29.1007C140.863 28.9128 142.107 27.9119 142.732 26.1263C142.914 25.6094 142.972 24.9703 143.02 24.3642C143.16 22.4752 142.693 20.8634 141.713 19.8297H141.708ZM73.947 19.6417C73.9614 19.1342 73.9758 18.6126 73.9326 18.1004C73.9181 17.9407 73.9277 17.7762 73.9326 17.6023C73.9422 17.4144 73.9518 17.2217 73.9326 17.0291C73.9326 16.9915 73.9326 16.9445 73.9326 16.8928C73.9326 16.7753 73.9374 16.6344 73.8653 16.5216C73.8364 16.4793 73.7884 16.4511 73.7355 16.4464C73.6058 16.437 73.4665 16.4323 73.2983 16.4323C73.1733 16.4323 73.0532 16.4323 72.9475 16.4417C72.5439 16.4511 72.2796 16.4417 71.9336 16.4511C71.8519 16.4511 71.7751 16.4511 71.703 16.4511H71.4291C71.3234 16.4511 71.2225 16.4511 71.1072 16.4511C71.0399 16.4511 71.0159 16.4511 70.9774 16.4558C70.8909 16.4652 70.8285 16.5404 70.8285 16.625C70.8285 16.7189 70.8285 16.8317 70.8285 16.9586C70.8285 17.1137 70.8285 17.2781 70.8285 17.4191L70.8092 19.2752L70.79 23.6123L70.7996 23.8943C70.7708 24.4581 70.7804 25.5906 70.79 25.7786C70.7852 25.9007 70.7804 26.0182 70.7756 26.1357C70.766 26.3753 70.7612 26.6197 70.7372 26.8687C70.6315 27.4326 70.4729 27.8085 70.223 28.0905C69.8098 28.5604 69.2188 28.847 68.301 29.0255C68.0896 29.0678 67.8541 29.0866 67.5946 29.0866C67.5226 29.0866 67.4505 29.0866 67.3784 29.0819C67.1333 29.0725 66.6 29.0021 66.3934 28.9598C65.687 28.8047 64.774 28.4617 64.4137 27.7239C64.2215 27.3292 64.1782 26.7559 64.1542 26.2062C64.1542 26.0323 64.1494 25.849 64.1398 25.6752C64.1302 25.5013 64.1254 25.3228 64.1254 25.163C64.1254 25.1536 64.1254 25.1442 64.1254 25.1348C64.1061 24.9985 64.1109 24.8482 64.1157 24.679C64.1157 24.6132 64.1157 24.5474 64.1157 24.4769C64.1157 24.4441 64.1157 24.3642 64.1157 24.1151C64.1157 23.7627 64.1157 23.1753 64.1302 23.0391C64.1494 22.8699 64.1446 22.3671 64.1398 21.8267C64.1398 21.6717 64.1398 21.5119 64.1398 21.4743C64.1398 21.4649 64.1398 21.4555 64.1398 21.4461C64.135 21.3051 64.135 20.8775 64.1398 20.8117C64.1398 20.8023 64.1398 20.793 64.1398 20.7836C64.1254 20.6614 64.1302 20.5157 64.135 20.3606C64.135 20.168 64.1446 19.9659 64.1157 19.7827C64.1157 19.7545 64.1157 19.7169 64.1157 19.6746C64.1206 19.6088 64.1302 19.543 64.1157 19.4631C64.1157 19.3739 64.1157 19.1906 64.1157 19.0026C64.1157 18.81 64.1157 18.6126 64.1157 18.5374C64.1254 18.3307 64.1254 18.1333 64.1254 17.9407V17.8185C64.1254 17.7198 64.1157 16.8317 64.0965 16.5968C64.0917 16.5122 64.0148 16.4417 63.9283 16.4417C63.0346 16.4323 62.1409 16.4323 61.3432 16.4323H61.1798C61.1318 16.4323 61.0885 16.4511 61.0549 16.484C61.0213 16.5169 61.0069 16.5592 61.0069 16.6062C61.0069 16.6673 61.0165 16.8364 61.0165 16.9069C61.002 17.2546 61.002 17.5695 61.0165 17.8373V17.8608C61.0117 19.2 61.0069 20.5345 60.9972 21.8737V24.2044C60.9924 24.5004 60.9876 24.7965 60.978 25.0972L60.9876 25.7316C60.9876 25.8302 60.9876 25.9289 60.9876 26.0276C60.9876 26.6432 60.978 27.2822 61.1078 27.8508C61.2567 28.5322 61.4489 29.0443 61.7084 29.4626C62.6214 30.938 64.356 31.7885 66.8739 31.9906C66.9844 32 67.1622 32.0047 67.34 32.0047C67.3832 32.0047 67.4265 32.0047 67.4649 32.0047H67.4793C67.9598 31.9953 68.5076 31.9859 69.0266 31.8966C69.0986 31.8872 69.2572 31.8637 69.4158 31.8449C69.5599 31.8261 69.7089 31.8026 69.7713 31.7979C69.7761 31.7979 69.7858 31.7979 69.7906 31.7979L69.8819 31.7745C70.396 31.6523 70.9246 31.5207 71.357 31.2952C71.6405 31.1777 71.8327 31.0367 72.049 30.8769C72.3277 30.6843 72.7601 30.2285 72.8658 30.0875C73.1926 29.6599 73.3704 29.2511 73.5818 28.7154C73.6875 28.4476 73.7644 28.128 73.7932 27.7944C73.7932 27.7615 73.8028 27.7239 73.8076 27.6863C73.8172 27.6394 73.822 27.5971 73.822 27.5548C73.8605 27.3339 73.8701 27.1366 73.8749 26.9298C73.8749 26.8311 73.8797 26.7325 73.8893 26.6291C73.9085 26.3048 73.9181 25.9806 73.9133 25.7316C73.9133 25.5248 73.9133 25.351 73.9133 25.1818C73.9133 24.9421 73.9229 24.7119 73.9037 24.4535L73.9229 23.852C73.9229 23.5512 73.9229 23.0015 73.9277 22.4705C73.9325 21.822 73.9422 21.2628 73.9277 21.136C73.8893 20.6473 73.9037 20.1445 73.9181 19.6558L73.947 19.6417ZM59.0031 30.7501C59.0127 30.6373 59.0079 30.5151 59.0031 30.407C59.0031 30.3319 58.9983 30.2567 59.0031 30.205C59.0127 30.0076 59.0223 29.7257 59.0127 29.533C59.0031 29.3827 59.0079 29.2652 59.0079 29.1383C59.0079 29.049 59.0079 28.9598 59.0079 28.8564C59.0079 28.7671 58.9311 28.6966 58.8398 28.6919H58.5755C58.1574 28.6872 57.6433 28.6825 57.2829 28.6825H52.7133C52.2328 28.6825 51.7474 28.6778 51.2669 28.6731C51.2189 28.6684 51.1468 28.6637 51.0459 28.6637C51.0267 28.6637 51.0123 28.6637 50.993 28.6637C50.993 28.3207 50.9834 27.5971 50.9738 27.4843C50.9594 27.2775 50.9594 27.0755 50.9642 26.864C50.9642 26.6808 50.9642 26.4928 50.9594 26.2954C50.9594 26.1874 50.9594 25.6235 50.9594 24.726C50.9594 24.1668 50.9594 23.5841 50.9594 23.5372C50.9882 23.1753 51.0219 19.3128 50.9978 19.0402C50.993 18.9651 50.9978 18.8476 50.9978 18.7442V18.6549C50.9978 18.4529 50.9882 18.0441 50.9786 17.6399C50.969 17.2123 50.9594 16.7706 50.9594 16.6626C50.9594 16.5686 50.8825 16.4981 50.7912 16.4934C50.0272 16.484 49.2248 16.4793 48.4511 16.4699H48.1869C48.1869 16.4699 48.1388 16.4699 48.1196 16.4793C48.1196 16.4793 48.11 16.4793 48.1052 16.4793C48.0715 16.4793 48.0235 16.484 47.9706 16.5122C47.9178 16.5404 47.8841 16.5874 47.8793 16.6438C47.8457 17.0197 47.8601 17.3909 47.8697 17.7574C47.8841 18.1192 47.8938 18.4576 47.8601 18.7771C47.8361 18.9838 47.8697 20.1257 47.8745 20.2667C47.8745 20.3231 47.8745 20.4734 47.8745 20.6943C47.8649 21.6623 47.8457 23.9366 47.8745 24.5192C47.8553 24.8576 47.8649 26.3753 47.8649 26.3988C47.8841 26.568 47.8697 26.7794 47.8649 26.9815C47.8553 27.1976 47.8409 27.4138 47.8649 27.6112L47.8745 30.4775C47.8745 30.6326 47.8889 31.3374 47.8889 31.3374C47.8889 31.4267 47.9658 31.5019 48.0571 31.5019C48.0571 31.5019 48.5569 31.5066 48.7683 31.516C48.9509 31.5207 49.5179 31.5254 49.8735 31.5254C49.9984 31.5254 50.1041 31.5254 50.1569 31.5254H56.5285L58.1238 31.516C58.1238 31.516 58.1382 31.516 58.143 31.516C58.2007 31.5066 58.3064 31.5066 58.3977 31.5066H58.5418C58.662 31.5066 58.7533 31.5066 58.8205 31.4972C59.0512 31.469 59.032 31.1871 59.0127 30.8863C59.0127 30.83 59.0031 30.7595 59.0079 30.736L59.0031 30.7501ZM111.681 26.8405C111.715 27.6769 111.552 28.4899 111.22 29.1336C110.768 30.0076 110.072 30.6655 109.212 31.032C108.217 31.4596 106.55 31.5207 105.646 31.5207C105.353 31.5207 105.06 31.516 104.781 31.5019C104.498 31.5019 103.787 31.5019 103.09 31.4972C102.446 31.4972 101.821 31.4972 101.552 31.4972C101.365 31.4972 101.201 31.4972 101.048 31.4972H100.389C100.192 31.4972 99.981 31.4972 99.7215 31.4972H99.6879C99.6062 31.4972 99.4812 31.4972 99.3515 31.4925C99.2169 31.4925 99.0776 31.4878 98.9815 31.4878H98.9335C98.5442 31.4972 98.155 31.4878 97.8475 31.4784C97.7562 31.4784 97.6889 31.4032 97.6841 31.314C97.6841 31.1354 97.6841 30.4305 97.6841 29.7492C97.6841 29.2793 97.6889 28.8188 97.6889 28.5744C97.6985 28.4382 97.6985 28.0623 97.7033 27.7568C97.7033 27.5548 97.7033 27.3715 97.7082 27.2963L97.6985 23.3163V19.872C97.6937 19.6276 97.6937 18.7583 97.6985 18.5609C97.7082 18.4012 97.7033 18.2555 97.6985 18.1004C97.6985 17.9266 97.6937 17.7527 97.7033 17.5554C97.7226 17.2264 97.7226 16.8834 97.7226 16.5827V16.5498C97.7226 16.4652 97.7898 16.3947 97.8763 16.3853C97.958 16.3759 98.0349 16.3806 98.131 16.3853C98.1742 16.3853 98.2223 16.3853 98.2752 16.3853H99.7647C100.168 16.3853 100.779 16.3853 101.413 16.3853C101.764 16.3853 102.523 16.3853 103.277 16.3853C103.993 16.3853 104.704 16.3853 105.036 16.3853C105.377 16.3759 105.79 16.3853 106.17 16.3947C106.506 16.4041 106.751 16.4229 107.025 16.4558C108.227 16.6109 109.178 17.0949 109.774 17.8608C110.105 18.2884 110.336 18.7912 110.514 19.5007C110.576 19.7498 110.595 20.0646 110.571 20.4875C110.552 20.8587 110.374 21.4602 110.206 21.7562C109.952 22.2073 109.582 22.5739 109.144 22.8276C109.139 22.8276 109.13 22.8323 109.125 22.837C109.072 22.8605 109.024 22.8793 108.976 22.9028C109.149 22.9827 109.327 23.0814 109.548 23.2129C110.096 23.5888 110.773 24.1198 111.196 24.9703C111.417 25.4167 111.542 25.7598 111.643 26.5022C111.643 26.5069 111.643 26.5116 111.643 26.521C111.643 26.5633 111.648 26.6197 111.653 26.6714C111.653 26.7325 111.662 26.7888 111.662 26.8311L111.681 26.8405ZM100.764 28.9786C100.788 28.9786 100.817 28.9786 100.841 28.9786C100.88 28.9786 100.923 28.9786 100.961 28.9786C100.985 28.9786 101.009 28.9786 101.033 28.9786C101.201 28.9786 101.735 28.988 102.283 28.9927C102.883 28.9974 103.503 29.0068 103.695 29.0115C104.109 29.0302 104.459 29.0302 104.959 29.0302H105.276C105.536 29.0302 105.766 29.0209 105.992 28.9927C107.03 28.8752 107.708 28.551 108.073 28.0059C108.236 27.7662 108.356 27.4326 108.428 27.0473C108.529 26.5116 108.375 26.0041 108.198 25.7034C107.972 25.3275 107.813 25.1442 107.487 24.8952C107.419 24.8529 107.371 24.82 107.309 24.7965C107.155 24.726 107.006 24.6649 106.876 24.6273C106.665 24.5662 106.468 24.5145 106.228 24.4863C105.56 24.4159 104.536 24.4065 103.83 24.4065C103.402 24.4065 102.97 24.4065 102.561 24.4112C101.889 24.4112 101.274 24.4206 100.827 24.4112H100.798C100.798 24.4112 100.764 24.4112 100.75 24.4112C100.74 24.6414 100.74 24.9797 100.74 25.163C100.74 25.1724 100.74 25.2429 100.74 25.3604C100.75 25.9289 100.769 27.4467 100.764 27.8414V28.753C100.769 28.8235 100.764 28.9034 100.764 28.9786ZM107.299 19.933C106.905 18.9181 105.987 18.8147 104.522 18.7724C104.469 18.7724 104.397 18.7724 104.33 18.7724H104.243C104.181 18.7724 104.113 18.7724 104.056 18.7724C103.489 18.7818 102.398 18.8006 101.581 18.8147C101.254 18.8194 100.971 18.8241 100.779 18.8288C100.779 18.9134 100.779 18.9932 100.779 19.0778C100.779 19.2141 100.779 19.3598 100.774 19.5383C100.769 19.8485 100.774 20.1398 100.774 20.4781C100.774 20.6614 100.779 20.8587 100.783 21.0843C100.783 21.2347 100.783 21.6341 100.788 21.8596C100.846 21.8596 100.908 21.8596 100.966 21.8596C101.12 21.8643 101.624 21.869 102.114 21.869C102.388 21.869 102.657 21.869 102.854 21.8737C102.946 21.8737 103.22 21.8737 103.498 21.8737C103.777 21.8737 104.056 21.8737 104.147 21.8737C104.248 21.8737 104.344 21.8737 104.44 21.8737C105.281 21.8737 105.963 21.8079 106.357 21.6811C106.593 21.6059 106.795 21.4931 106.972 21.338C107.006 21.3051 107.073 21.2488 107.102 21.2018L107.141 21.1407C107.227 21.0091 107.314 20.8775 107.338 20.7413C107.39 20.4781 107.371 20.1304 107.294 19.933H107.299ZM32.8538 16.4323C32.825 16.3759 32.7673 16.3383 32.7 16.3383H29.4566C29.3989 16.3383 29.3509 16.3665 29.3173 16.4088C28.1881 17.983 27.1646 19.7122 26.2804 21.5354C25.5885 22.9592 24.9687 24.4675 24.4305 26.0229C23.8923 24.4675 23.2725 22.9592 22.5805 21.5354C21.6916 19.7075 20.6729 17.983 19.5437 16.4088C19.5101 16.3665 19.4572 16.3383 19.4044 16.3383H16.1705C16.1033 16.3383 16.0456 16.3759 16.0168 16.4323C15.9879 16.4934 15.9975 16.5592 16.036 16.6109C17.0451 17.8279 18.5394 19.886 19.9377 22.7665C21.5618 26.1075 22.446 29.3028 22.8977 31.3938C22.9169 31.4737 22.9841 31.5254 23.0658 31.5254H25.7999C25.8816 31.5254 25.9489 31.469 25.9681 31.3938C26.4198 29.3075 27.3039 26.1169 28.9329 22.7665C30.3263 19.9001 31.8255 17.8373 32.8346 16.6109C32.8778 16.5592 32.8826 16.4934 32.8538 16.4323Z" fill="#2C2C2C"/>
</svg>
