<svg width="160" height="16" viewBox="0 0 160 16" fill="none" xmlns="http://www.w3.org/2000/svg">
<path d="M72.6794 13.3968C72.6794 13.4485 72.6746 13.5048 72.6794 13.5377C72.6794 13.5471 72.6794 13.5565 72.6794 13.5659L72.6602 14.8957C72.6602 14.8957 72.6602 14.9051 72.6602 14.9098C72.6554 14.9662 72.6554 15.0273 72.6602 15.0837C72.6602 15.1777 72.6602 15.2764 72.6265 15.375C72.6121 15.4079 72.5929 15.4361 72.5592 15.4549C72.4632 15.516 72.3478 15.5254 72.271 15.5254C72.2277 15.5254 72.1797 15.5254 72.1364 15.5207C72.0884 15.5207 72.0355 15.5113 71.9923 15.5207L70.618 15.5395H70.6084C70.4594 15.5348 65.491 15.516 63.492 15.516C63.3335 15.516 63.1893 15.516 63.0404 15.516C62.9443 15.516 62.853 15.516 62.7617 15.516C62.5599 15.516 62.4061 15.516 62.2667 15.5066C62.1899 15.5066 62.0986 15.5066 62.0073 15.516C61.9256 15.5207 61.8391 15.5301 61.7574 15.5301C61.6084 15.5301 61.4979 15.5113 61.4114 15.4643C61.349 15.4267 61.2096 15.3421 61.2673 14.6655V12.2079C61.2673 12.0294 61.2673 11.5971 61.2673 11.0661C61.2673 9.83495 61.2769 8.15272 61.2817 7.7815C61.2817 7.7486 61.2817 7.61233 61.2817 7.43847C61.2817 6.71013 61.2817 6.44229 61.2913 6.36711V5.44141C61.2913 5.30514 61.2913 4.82115 61.2913 4.33245C61.2913 3.81087 61.2913 3.29398 61.2913 3.2V2.90866C61.2913 2.24141 61.2913 0.996182 61.3105 0.657856C61.3153 0.577974 61.3778 0.516887 61.4547 0.50279C61.5123 0.493392 61.7094 0.483994 62.7376 0.483994C63.5833 0.483994 64.6645 0.488693 65.4045 0.493392H65.6928H66.9469C67.2688 0.493392 67.7638 0.493392 68.2539 0.493392C68.7488 0.493392 69.2389 0.493392 69.5609 0.493392H69.5753C70.1183 0.483994 71.1129 0.474596 71.7184 0.474596C72.0643 0.474596 72.1508 0.479295 72.1893 0.483994C72.2758 0.488693 72.343 0.559178 72.343 0.643759C72.343 0.68605 72.343 0.723642 72.3526 0.765932C72.3574 0.855213 72.3671 0.949192 72.3574 1.07137C72.3574 1.15595 72.3574 1.28752 72.3574 1.41909C72.3622 1.62584 72.3719 1.8373 72.3526 1.99706C72.343 2.08164 72.3526 2.18972 72.3526 2.3025C72.3622 2.48576 72.3719 2.69251 72.319 2.87107C72.3046 2.92276 72.2661 2.96035 72.2133 2.97915C72.146 3.00264 72.0788 3.00734 72.0307 3.00734C72.0115 3.00734 71.9922 3.00734 71.973 3.00734C71.9394 3.00734 71.9058 3.00734 71.8721 3.00734C71.7232 3.02144 71.0985 3.03084 69.9068 3.03084C69.2678 3.03084 68.5758 3.03084 67.9992 3.03084C67.3553 3.03084 66.8508 3.03084 66.7355 3.03084C66.5817 3.03084 66.428 3.03084 66.2694 3.03084C66.0868 3.03084 65.9042 3.02614 65.7408 3.03084C65.6111 3.03554 65.4429 3.04023 65.2171 3.04023C65.0825 3.04023 64.9432 3.04023 64.8086 3.04023C64.6309 3.04023 64.4579 3.04023 64.3137 3.04023C64.2993 3.58062 64.3041 5.26285 64.3425 5.82203C64.9047 5.85022 67.3601 5.85962 68.4653 5.85962C69.0179 5.85962 69.263 5.85962 69.3014 5.85962C69.6906 5.87841 70.0942 5.88311 70.3441 5.86902L71.6463 5.87841C71.7328 5.87841 71.8097 5.9442 71.8145 6.03348C71.8193 6.11806 71.8241 6.19324 71.8241 6.27783C71.8241 6.33891 71.8241 6.4094 71.8337 6.47988C71.8481 6.72893 71.8433 6.98737 71.8337 7.25521C71.8337 7.37269 71.8289 7.49956 71.8241 7.63113C71.8241 7.7815 71.8241 8.19031 71.8241 8.19031C71.8241 8.2373 71.8049 8.27959 71.776 8.31248C71.7424 8.34538 71.6991 8.36417 71.6511 8.35947C71.6511 8.35947 71.3243 8.35947 71.2379 8.35947C71.2379 8.35947 71.2282 8.35947 71.2234 8.35947C70.7045 8.35947 69.0131 8.35947 68.917 8.36887H68.9026C68.7584 8.36887 68.4509 8.36417 68.1434 8.35947C67.8214 8.35947 67.4947 8.35477 67.3457 8.35007C67.1151 8.35007 66.6826 8.35477 66.2886 8.35477C65.9474 8.35477 65.5486 8.35477 65.4573 8.35007C65.2555 8.35477 65.0249 8.35477 64.7942 8.35947C64.6309 8.35947 64.4675 8.35947 64.3137 8.35947C64.3185 8.84346 64.2993 9.88664 64.2945 10.3095V10.4082C64.2945 10.4505 64.2945 10.5539 64.2897 10.8217C64.2849 11.254 64.2753 11.9777 64.2897 12.175C64.2993 12.2784 64.2897 12.3959 64.2897 12.5134C64.2849 12.6261 64.2753 12.7718 64.2897 12.8611C64.3377 12.8658 64.3906 12.8705 64.4483 12.8705H64.578C64.6164 12.8705 64.6597 12.8705 64.6981 12.8705C64.9432 12.8705 65.6015 12.8799 65.9234 12.8799C66.0003 12.8799 66.058 12.8799 66.082 12.8799C66.6778 12.8799 67.437 12.8893 68.1962 12.894C68.9554 12.894 69.7146 12.8987 70.3057 12.9081H71.8721C71.8721 12.9081 71.8865 12.9081 71.8913 12.9081C71.9394 12.9128 71.9971 12.9081 72.0547 12.8987C72.1076 12.8987 72.1652 12.8893 72.2181 12.8893C72.319 12.8893 72.3959 12.9034 72.4632 12.9363C72.6506 13.0256 72.6361 13.2417 72.6265 13.3968H72.6794ZM29.669 15.2717C29.693 15.3233 29.6882 15.3797 29.6594 15.4267C29.6306 15.4737 29.5825 15.5019 29.5248 15.5066C29.5104 15.5066 29.0491 15.5348 28.7272 15.5254H27.4923H27.4587C27.3818 15.5254 27.3097 15.5254 27.2376 15.5254C27.1703 15.5254 27.1031 15.5254 27.0358 15.5254C26.8916 15.5254 26.7811 15.5254 26.685 15.516C26.6322 15.5113 26.5841 15.4831 26.5553 15.4361C26.4736 15.3093 26.3583 15.0508 26.2045 14.6702C26.1132 14.4399 26.0219 14.1956 25.9258 13.9372C25.7721 13.5283 25.6135 13.1054 25.4501 12.7389C25.2243 12.7389 25.0129 12.753 24.8062 12.7577C24.614 12.7671 24.4218 12.7718 24.2248 12.7765C23.9173 12.7812 22.9515 12.7953 22.5767 12.7859C22.3028 12.7765 21.9905 12.7812 21.6781 12.7859C21.3754 12.7859 21.0727 12.7859 20.7844 12.7859L19.7225 12.7765H19.6792C19.6215 12.7765 19.5639 12.7765 19.5158 12.7765C19.4053 13.0443 19.2612 13.3968 19.2323 13.486C19.1651 13.7257 19.0593 13.9794 18.9536 14.2285C18.8912 14.3836 18.8287 14.5339 18.7758 14.6796C18.7518 14.7454 18.7278 14.8159 18.7038 14.8816C18.6413 15.0696 18.574 15.267 18.4779 15.4502C18.4491 15.5066 18.3914 15.5442 18.329 15.5442C18.1608 15.5442 18.0407 15.5489 17.9253 15.5489C17.81 15.5489 17.7091 15.5489 17.5794 15.5489H17.4208C17.2334 15.5489 17.0412 15.5489 16.8442 15.5489C16.6184 15.5489 16.3973 15.5489 16.1763 15.5489C16.1715 15.5489 16.1667 15.5489 16.1619 15.5489C16.085 15.5442 15.9841 15.5442 15.8736 15.5395C15.7582 15.5395 15.6381 15.5395 15.5228 15.5301C15.4699 15.5301 15.4171 15.4972 15.3931 15.4502C15.3642 15.4032 15.3594 15.3515 15.3786 15.2999C15.5276 14.9521 15.7679 14.3413 15.8447 14.1251C15.9505 13.8197 16.0562 13.533 16.1571 13.2511C16.2243 13.0631 16.2964 12.8799 16.3637 12.6872C16.3829 12.6261 16.4502 12.4523 16.5415 12.2314C16.6712 11.9025 16.8298 11.4984 16.8826 11.3292C16.9932 10.9627 17.1421 10.6056 17.2767 10.272C17.3055 10.1968 17.5794 9.47313 17.6995 9.163L17.7524 9.02203C17.8196 8.83877 17.8821 8.65081 17.9446 8.47694C18.0359 8.19971 18.132 7.91307 18.2569 7.62643L18.3242 7.47137C18.4107 7.27401 18.502 7.06725 18.5644 6.88399C18.6846 6.50808 18.8383 6.14156 18.9825 5.78443C19.1218 5.44141 19.266 5.08429 19.3813 4.73186C19.8378 3.34097 20.4 1.96887 20.9814 0.573275C21.0054 0.512188 21.0631 0.474596 21.1303 0.469897C21.212 0.465198 21.2889 0.465198 21.3802 0.465198H21.6253C21.7262 0.465198 21.8511 0.465198 22.0097 0.465198C22.5815 0.465198 23.2878 0.465198 23.8356 0.498091C23.9077 0.498091 23.9653 0.54978 23.9846 0.610866C24.0759 0.888106 24.6333 2.2931 24.9312 3.04963C25.0417 3.33157 25.1234 3.53363 25.133 3.56652L25.1762 3.68869C25.2771 3.96593 25.3829 4.25257 25.4934 4.53921C25.5462 4.68018 25.676 5.00441 25.8538 5.44141C26.4544 6.94038 27.5692 9.72687 27.9584 10.9016C27.9872 10.9956 28.3476 11.9448 28.5014 12.3066C28.5254 12.363 28.6263 12.6308 28.7464 12.941C28.8521 13.2135 28.9626 13.5142 29.0299 13.6787C29.0924 13.8103 29.3807 14.5809 29.4672 14.8253C29.5104 14.9474 29.6594 15.2811 29.6594 15.2858L29.669 15.2717ZM24.5227 10.1874C24.3978 9.82085 24.2825 9.50602 24.172 9.21938C24.1527 9.1583 24.1335 9.10661 24.1191 9.05962C24.1047 9.01733 24.0951 8.98443 24.0855 8.95624L23.8068 8.242C23.6578 7.81439 23.4993 7.39618 23.3455 6.99207C23.1389 6.44699 22.9226 5.87841 22.7352 5.30514L22.4469 4.34655C22.4037 4.48752 22.3556 4.62849 22.3172 4.76006C22.2643 4.92922 22.2067 5.09838 22.149 5.27225C22.0625 5.52129 21.976 5.77504 21.904 6.03348C21.904 6.03818 21.904 6.04288 21.8992 6.04758L21.6733 6.61615C21.6349 6.72423 21.5916 6.837 21.5532 6.94978C21.4859 7.15184 21.4138 7.35389 21.3274 7.55125C21.3081 7.61233 21.2553 7.7627 21.1159 8.13392C21.0487 8.31248 20.9862 8.48634 20.9477 8.58972C20.9237 8.66021 20.9045 8.73069 20.8901 8.80587C20.8709 8.89515 20.8468 8.98913 20.8084 9.08781C20.7507 9.23818 20.6931 9.39794 20.6402 9.56241C20.573 9.75037 20.5057 9.94772 20.4288 10.1404C20.4192 10.1686 20.4048 10.1968 20.3904 10.225C20.3759 10.2532 20.3615 10.286 20.3519 10.3142C20.4769 10.3236 20.6114 10.3236 20.7796 10.3236C20.8949 10.3236 21.0054 10.3236 21.1255 10.3236C21.2505 10.3236 21.3754 10.3236 21.5003 10.3236H21.5772C21.6829 10.3236 21.7983 10.3236 21.9136 10.3283C22.1394 10.333 22.3797 10.3424 22.6199 10.3283H23.1821C23.4272 10.3283 23.7059 10.3189 23.9702 10.3142C24.172 10.3095 24.3738 10.3048 24.5708 10.3001C24.5564 10.2626 24.5468 10.2203 24.5275 10.1733L24.5227 10.1874ZM145.02 14.2379L144.64 13.5377C144.458 13.2135 144.256 12.8799 144.059 12.5557C143.91 12.3066 143.756 12.0576 143.617 11.8132C143.598 11.7756 143.559 11.7145 143.516 11.6394C143.367 11.3856 143.093 10.9204 143.021 10.7747C143.007 10.7419 142.963 10.6667 142.747 10.2907C142.574 9.99471 142.358 9.6235 142.233 9.40264L142.175 9.29457C142.094 9.1395 142.012 8.99383 141.921 8.84816C141.815 8.62731 141.2 7.53245 140.96 7.11894C140.902 7.02026 140.835 6.92159 140.768 6.80881C140.595 6.54097 140.398 6.23554 140.311 5.9536C140.35 5.91131 140.398 5.86432 140.441 5.82673C140.465 5.80323 140.484 5.78443 140.503 5.76564C140.628 5.64347 140.739 5.51189 140.844 5.38972C140.936 5.28164 141.027 5.17357 141.128 5.07019C141.219 4.97621 141.296 4.87753 141.368 4.77885C141.416 4.71307 141.469 4.64728 141.522 4.5862C141.589 4.51101 141.656 4.43583 141.729 4.36065C141.839 4.23847 141.959 4.1163 142.065 3.97533C142.132 3.89075 142.411 3.59001 142.68 3.29868C142.968 2.98855 143.261 2.66902 143.406 2.49985C143.617 2.25081 143.838 2.01116 144.078 1.75272C144.381 1.42849 144.698 1.09016 144.977 0.737739C145.015 0.68605 145.025 0.620264 144.996 0.563877C144.967 0.507489 144.91 0.469897 144.842 0.469897C144.689 0.469897 144.544 0.465198 144.41 0.460499C144.266 0.460499 144.136 0.4558 144.021 0.451101H142.291C141.988 0.446402 141.729 0.451101 141.498 0.474596C141.455 0.479295 141.411 0.498091 141.383 0.535683C141.32 0.606167 141.262 0.676652 141.2 0.751836C141.138 0.827019 141.07 0.902203 141.003 0.977386C140.95 1.03847 140.892 1.09486 140.84 1.15595C140.7 1.31571 140.547 1.48018 140.402 1.63524C140.205 1.8467 139.999 2.06755 139.821 2.2884L138.841 3.34097C138.841 3.34097 138.831 3.35037 138.831 3.35507C138.677 3.55712 138.504 3.73568 138.322 3.92834C138.226 4.02702 138.13 4.1304 138.033 4.23377C137.428 4.90573 136.851 5.54009 136.313 6.12276C136.308 5.91131 136.299 5.66226 136.294 5.4884V5.38502C136.289 5.30044 136.294 5.21116 136.294 5.11248C136.294 4.94802 136.294 4.76006 136.284 4.5862L136.265 1.97827C136.256 1.77151 136.26 1.57416 136.265 1.3815C136.265 1.11366 136.27 0.864611 136.241 0.643759C136.232 0.582673 136.188 0.526285 136.126 0.507489C136.015 0.469897 135.895 0.465198 135.804 0.465198C135.77 0.465198 135.732 0.465198 135.698 0.465198C135.636 0.465198 135.583 0.465198 135.501 0.465198C135.367 0.465198 135.141 0.465198 134.886 0.465198C134.439 0.465198 133.887 0.465198 133.685 0.451101C133.67 0.451101 133.656 0.451101 133.642 0.451101C133.627 0.451101 133.584 0.451101 133.55 0.451101C133.497 0.451101 133.44 0.451101 133.387 0.460499C133.31 0.479295 133.252 0.545081 133.252 0.624963C133.252 0.765933 133.252 0.902203 133.248 1.04317C133.248 1.27812 133.238 1.52247 133.248 1.79031V2.51865C133.209 2.91336 133.233 4.65668 133.238 4.84934C133.224 5.05139 133.228 5.20176 133.228 5.39442C133.228 5.4696 133.228 5.55418 133.228 5.64816C133.228 6.55976 133.224 7.47137 133.219 8.38297C133.195 8.56153 133.195 9.22878 133.209 10.2485C133.209 10.4129 133.209 10.5398 133.209 10.6009V13.0302C133.209 13.1242 133.209 14.2943 133.228 14.7877C133.228 14.8488 133.228 14.938 133.233 15.032C133.233 15.1589 133.233 15.2952 133.243 15.3844C133.248 15.4737 133.324 15.5395 133.411 15.5395H135.218C135.319 15.5395 135.415 15.5395 135.511 15.5395H136.083C136.169 15.5395 136.241 15.4784 136.251 15.3938C136.27 15.2153 136.26 14.9521 136.251 14.6749C136.241 14.4258 136.232 14.1674 136.251 13.9935C136.251 13.9935 136.251 13.9841 136.251 13.9794L136.275 10.4364C136.275 10.4364 136.304 10.4035 136.323 10.3847C136.352 10.3612 136.376 10.333 136.395 10.3048C136.496 10.1733 136.602 10.0558 136.717 9.92893C136.832 9.80206 136.947 9.67518 137.058 9.52952C137.082 9.50132 137.135 9.44493 137.226 9.34626C137.39 9.163 137.836 8.6649 138.057 8.46285C138.192 8.6696 138.307 8.89515 138.427 9.1348C138.548 9.36975 138.673 9.6141 138.821 9.84435C138.927 10.0088 139.018 10.178 139.11 10.3612C139.177 10.4881 139.244 10.615 139.316 10.7465L139.48 11.0285C139.749 11.4984 140.032 11.9824 140.297 12.4476C140.479 12.7718 140.979 13.6928 141.051 13.8385C141.171 14.0546 141.306 14.2802 141.44 14.4916C141.503 14.5903 141.56 14.689 141.618 14.783C141.656 14.8488 141.69 14.9192 141.729 14.9897C141.82 15.173 141.911 15.3609 142.079 15.4972C142.108 15.5207 142.147 15.5348 142.19 15.5348H144.664C144.703 15.5348 144.761 15.5348 144.828 15.5348C144.881 15.5348 144.943 15.5348 145.001 15.5348C145.179 15.5348 145.553 15.5348 145.577 15.267C145.577 15.2388 145.577 15.2059 145.558 15.1824C145.38 14.8253 145.179 14.5057 145.006 14.2379H145.02ZM159.839 10.1827C159.82 10.1075 159.796 10.037 159.776 9.95712C159.757 9.88664 159.671 9.5859 159.618 9.48253C158.854 7.7815 157.292 7.14714 155.327 6.49398C155.164 6.43759 155.01 6.4047 154.866 6.36711C154.731 6.33421 154.592 6.30132 154.443 6.25433C153.905 6.08047 153.208 5.84552 152.583 5.58708C152.252 5.45081 151.786 5.19706 151.574 5.00441C151.353 4.80705 151.276 4.64728 151.185 4.36065C151.108 4.1163 151.271 3.75448 151.401 3.56652C151.771 3.03084 152.54 2.7301 153.434 2.78179C154.664 2.85228 155.711 3.42555 156.283 3.93304L156.408 4.04112C156.591 4.20088 156.744 4.33715 156.932 4.5486C156.946 4.5674 156.961 4.5862 156.975 4.60029C157.028 4.66608 157.09 4.74126 157.239 4.88223C157.302 4.94332 157.403 4.94332 157.47 4.88693C157.749 4.65198 158.047 4.42643 158.335 4.20558C158.508 4.07401 158.676 3.93774 158.849 3.80617C158.912 3.75448 159.003 3.68399 159.099 3.60881C159.209 3.52423 159.32 3.43965 159.392 3.38326C159.431 3.35037 159.455 3.30338 159.455 3.25169C159.455 3.10602 159.354 2.98385 159.282 2.88987C159.267 2.87107 159.253 2.85697 159.243 2.84288C159.075 2.59853 158.868 2.37768 158.667 2.16153L158.628 2.11924C158.628 2.11924 158.609 2.10044 158.599 2.09574C158.58 2.08164 158.546 2.05345 158.513 2.02526C158.465 1.98297 158.431 1.95477 158.402 1.93598C157.422 1.02438 156.461 0.629662 155.14 0.263142C154.645 0.13627 154.308 0.0986784 153.741 0.0704846L152.92 0.0469897C152.92 0.0469897 152.905 0.0469897 152.9 0.0469897C152.583 0.0704846 152.271 0.0986784 151.944 0.126872C151.204 0.239648 150.421 0.512188 149.95 0.82232C148.787 1.58825 147.687 3.12952 148.066 5.14537C148.076 5.19236 148.086 5.24405 148.091 5.29104C148.119 5.45081 148.143 5.61527 148.215 5.77974C148.557 6.60206 149.114 7.26461 149.926 7.80499C149.936 7.81439 149.95 7.81909 149.964 7.82379C149.979 7.82379 150.008 7.84728 150.032 7.86138C150.065 7.88018 150.104 7.90367 150.137 7.91777C150.378 8.05404 150.589 8.15742 150.887 8.26549C150.921 8.27489 150.969 8.29368 151.017 8.31718C151.07 8.34068 151.123 8.36417 151.175 8.37827C151.978 8.74949 152.886 9.02203 153.756 9.28517C153.953 9.34626 154.15 9.40264 154.347 9.46373L154.409 9.48253C155.385 9.78326 156.389 10.0934 156.692 10.9909C156.735 11.1225 156.735 11.2775 156.73 11.3856C156.711 11.9307 156.456 12.2079 156.173 12.4711C155.62 12.9786 154.827 13.0866 154.255 13.0866C153.069 13.0866 151.723 12.6261 151.06 11.9918C150.796 11.7427 150.402 11.3621 150.224 11.0332C150.186 10.9627 150.08 10.7888 149.974 10.6197C149.897 10.4975 149.82 10.3659 149.796 10.3283C149.772 10.2907 149.739 10.2579 149.691 10.2485C149.647 10.2391 149.599 10.2438 149.556 10.2673C149.474 10.3189 149.359 10.38 149.253 10.4364C149.128 10.5022 149.023 10.5633 148.975 10.5962C148.754 10.7372 148.533 10.864 148.321 10.9909C148.1 11.1225 147.869 11.254 147.648 11.3997C147.61 11.4279 147.562 11.4561 147.519 11.4843C147.36 11.583 147.178 11.7004 147.048 11.8132C147 11.8555 146.981 11.9213 146.995 11.9824C147.057 12.1985 147.197 12.4006 147.312 12.5604L147.351 12.612C147.778 13.2135 148.143 13.6693 148.758 14.2191C148.802 14.2567 148.85 14.2943 148.898 14.3272C148.927 14.346 148.955 14.3648 148.975 14.3836C149.052 14.4446 149.157 14.5104 149.229 14.5527C149.282 14.5809 149.335 14.6138 149.383 14.6467C149.455 14.689 149.527 14.736 149.604 14.7736C150.205 15.1072 150.777 15.3468 151.348 15.5066C152.237 15.7604 153.275 15.8966 154.284 15.8966C155.351 15.8966 156.312 15.7416 157.066 15.4455C158.162 15.0226 159.022 14.2473 159.488 13.2699C159.628 12.9833 159.728 12.6496 159.82 12.3536C159.873 12.1703 159.906 12.0153 159.94 11.8132C159.988 11.5125 159.988 11.1366 159.988 10.9862C159.969 10.6479 159.897 10.4082 159.829 10.178L159.839 10.1827ZM112.869 7.61703C112.908 8.11982 112.888 8.47695 112.831 9.1348C112.807 9.37915 112.754 9.68458 112.73 9.80675C112.59 10.5351 112.336 11.301 112.023 11.9636C111.481 13.1101 110.611 14.0593 109.361 14.8722C109.169 14.9991 108.915 15.1072 108.843 15.1354C108.439 15.3046 108.074 15.4267 107.415 15.5724C107.194 15.6241 106.944 15.6617 106.699 15.704C106.613 15.7181 106.526 15.7322 106.44 15.7463C106.43 15.7463 106.421 15.7463 106.416 15.7463L105.902 15.7557C105.734 15.7698 105.556 15.7791 105.383 15.7791C104.508 15.7791 103.562 15.5865 102.481 15.1918C100.659 14.5292 99.3044 13.2417 98.5692 11.4702C98.4347 11.146 98.3386 10.8123 98.2425 10.4599C98.1992 10.3048 98.156 10.1498 98.1079 9.99002C98.1079 9.98062 98.1079 9.97122 98.1031 9.96652C98.0935 9.90073 98.0791 9.83025 98.0647 9.76446C98.0503 9.68928 98.0311 9.6141 98.0214 9.53421C97.9446 9.1442 97.9157 8.75418 97.9301 8.19971L97.9494 7.55595C97.9253 7.19413 97.9974 6.55507 98.0743 6.20264L98.1224 5.98179C98.2425 5.44611 98.3626 4.89163 98.5788 4.40294C99.463 2.39178 101.015 0.920999 102.846 0.375918C103.293 0.244347 103.744 0.169163 104.225 0.0892805L104.46 0.0516887C104.46 0.0516887 104.475 0.0516887 104.479 0.0516887L105.392 0.00469897C105.392 0.00469897 105.402 0.00469897 105.407 0.00469897C108.054 0.0845815 110.087 1.10896 111.447 3.04493C111.754 3.47724 112.072 3.94714 112.278 4.46872C112.456 4.90573 112.605 5.40852 112.72 5.9536C112.72 5.9583 112.72 5.963 112.72 5.97239L112.754 6.29192C112.826 6.58326 112.84 6.92159 112.855 7.25051C112.86 7.38208 112.864 7.50896 112.874 7.63113L112.869 7.61703ZM108.429 3.82966C107.622 2.98385 106.526 2.55624 105.162 2.58443L104.701 2.63142C104.355 2.69251 104.004 2.81938 103.691 2.92746C103.581 2.96505 103.432 3.04023 103.331 3.11072C103.153 3.22819 103.004 3.33627 102.855 3.45374C102.356 3.84846 101.846 4.52981 101.616 5.11248C100.583 7.74391 101.068 10.77 102.745 12.1515C102.793 12.1938 102.855 12.2267 102.918 12.2596C102.975 12.2925 103.033 12.3254 103.096 12.3724C103.836 12.9081 104.859 13.1947 105.748 13.1007C107.584 12.9128 108.828 11.9119 109.453 10.1263C109.635 9.6094 109.693 8.97034 109.741 8.36417C109.88 6.47518 109.414 4.86344 108.434 3.82966H108.429ZM130.148 7.61703C130.187 8.11982 130.168 8.47695 130.11 9.1348C130.086 9.37915 130.033 9.68458 130.009 9.80675C129.87 10.5351 129.615 11.301 129.303 11.9636C128.76 13.1101 127.89 14.0593 126.641 14.8722C126.448 14.9991 126.194 15.1072 126.122 15.1354C125.718 15.3046 125.353 15.4267 124.695 15.5724C124.473 15.6241 124.224 15.6617 123.979 15.704C123.892 15.7181 123.806 15.7322 123.719 15.7463C123.709 15.7463 123.7 15.7463 123.695 15.7463L123.181 15.7557C123.013 15.7698 122.835 15.7791 122.662 15.7791C121.792 15.7791 120.841 15.5865 119.76 15.1918C117.939 14.5292 116.584 13.2417 115.848 11.4702C115.714 11.1413 115.618 10.8123 115.522 10.4599C115.478 10.3048 115.435 10.1451 115.387 9.99002C115.387 9.98062 115.387 9.97122 115.382 9.96652C115.373 9.90073 115.358 9.83025 115.344 9.76446C115.329 9.68928 115.31 9.6141 115.301 9.53421C115.224 9.1442 115.195 8.75418 115.209 8.19971L115.228 7.55595C115.204 7.19413 115.277 6.55507 115.353 6.20264L115.401 5.98179C115.522 5.44611 115.642 4.88693 115.858 4.39824C116.742 2.38708 118.294 0.9163 120.125 0.371219C120.572 0.239648 121.023 0.164464 121.504 0.0845815L121.739 0.0469897C121.739 0.0469897 121.754 0.0469897 121.759 0.0469897L122.672 0C122.672 0 122.681 0 122.686 0C125.334 0.0798825 127.366 1.10426 128.726 3.04023C129.034 3.47254 129.351 3.94244 129.557 4.46402C129.735 4.90103 129.884 5.40382 129.999 5.9489C129.999 5.9536 129.999 5.9583 129.999 5.96769L130.033 6.28722C130.105 6.57856 130.119 6.91689 130.134 7.24581C130.139 7.37739 130.143 7.50426 130.153 7.62643L130.148 7.61703ZM125.708 3.82966C124.901 2.98385 123.806 2.55624 122.441 2.58443L121.984 2.63142C121.634 2.69251 121.283 2.81938 120.971 2.92746C120.86 2.96505 120.711 3.04023 120.61 3.11072C120.432 3.22819 120.283 3.33627 120.134 3.45374C119.635 3.84846 119.125 4.52981 118.895 5.11248C117.862 7.74391 118.347 10.77 120.024 12.1515C120.072 12.1938 120.134 12.2267 120.197 12.2596C120.255 12.2925 120.312 12.3254 120.375 12.3724C121.115 12.9081 122.138 13.1947 123.027 13.1007C124.863 12.9128 126.107 11.9119 126.732 10.1263C126.914 9.6094 126.972 8.97034 127.02 8.36417C127.16 6.47518 126.693 4.86344 125.713 3.82966H125.708ZM57.947 3.6417C57.9614 3.13421 57.9758 2.61263 57.9326 2.10044C57.9181 1.94068 57.9277 1.77621 57.9326 1.60235C57.9422 1.41439 57.9518 1.22173 57.9326 1.02907C57.9326 0.991483 57.9326 0.944493 57.9326 0.892805C57.9326 0.77533 57.9374 0.634361 57.8653 0.521586C57.8364 0.479295 57.7884 0.451101 57.7355 0.446402C57.6058 0.437004 57.4665 0.432305 57.2983 0.432305C57.1733 0.432305 57.0532 0.432305 56.9475 0.441703C56.5439 0.451101 56.2796 0.441703 55.9336 0.451101C55.8519 0.451101 55.7751 0.451101 55.703 0.451101H55.4291C55.3234 0.451101 55.2225 0.451101 55.1072 0.451101C55.0399 0.451101 55.0159 0.451101 54.9774 0.4558C54.8909 0.465198 54.8285 0.540382 54.8285 0.624963C54.8285 0.718943 54.8285 0.831718 54.8285 0.95859C54.8285 1.11366 54.8285 1.27812 54.8285 1.41909L54.8092 3.27518L54.79 7.61233L54.7996 7.89427C54.7708 8.45815 54.7804 9.5906 54.79 9.77856C54.7852 9.90073 54.7804 10.0182 54.7756 10.1357C54.766 10.3753 54.7612 10.6197 54.7372 10.8687C54.6315 11.4326 54.4729 11.8085 54.223 12.0905C53.8098 12.5604 53.2188 12.847 52.301 13.0255C52.0896 13.0678 51.8541 13.0866 51.5946 13.0866C51.5226 13.0866 51.4505 13.0866 51.3784 13.0819C51.1333 13.0725 50.6 13.0021 50.3934 12.9598C49.687 12.8047 48.774 12.4617 48.4137 11.7239C48.2215 11.3292 48.1782 10.7559 48.1542 10.2062C48.1542 10.0323 48.1494 9.84905 48.1398 9.67518C48.1302 9.50132 48.1254 9.32276 48.1254 9.163C48.1254 9.1536 48.1254 9.1442 48.1254 9.1348C48.1061 8.99853 48.1109 8.84816 48.1157 8.679C48.1157 8.61322 48.1157 8.54743 48.1157 8.47694C48.1157 8.44405 48.1157 8.36417 48.1157 8.11512C48.1157 7.7627 48.1157 7.17533 48.1302 7.03906C48.1494 6.8699 48.1446 6.36711 48.1398 5.82673C48.1398 5.67166 48.1398 5.51189 48.1398 5.4743C48.1398 5.4649 48.1398 5.45551 48.1398 5.44611C48.135 5.30514 48.135 4.87753 48.1398 4.81175C48.1398 4.80235 48.1398 4.79295 48.1398 4.78355C48.1254 4.66138 48.1302 4.51571 48.135 4.36065C48.135 4.16799 48.1446 3.96593 48.1157 3.78267C48.1157 3.75448 48.1157 3.71689 48.1157 3.6746C48.1206 3.60881 48.1302 3.54303 48.1157 3.46314C48.1157 3.37386 48.1157 3.1906 48.1157 3.00264C48.1157 2.80999 48.1157 2.61263 48.1157 2.53744C48.1254 2.33069 48.1254 2.13333 48.1254 1.94068V1.8185C48.1254 1.71982 48.1157 0.831718 48.0965 0.596769C48.0917 0.512188 48.0148 0.441703 47.9283 0.441703C47.0346 0.432305 46.1409 0.432305 45.3432 0.432305H45.1798C45.1318 0.432305 45.0885 0.451101 45.0549 0.483994C45.0213 0.516887 45.0069 0.559178 45.0069 0.606167C45.0069 0.667254 45.0165 0.836417 45.0165 0.906902C45.002 1.25463 45.002 1.56946 45.0165 1.8373V1.86079C45.0117 3.2 45.0069 4.53451 44.9972 5.87371V8.2044C44.9924 8.50044 44.9876 8.79648 44.978 9.09721L44.9876 9.73157C44.9876 9.83025 44.9876 9.92893 44.9876 10.0276C44.9876 10.6432 44.978 11.2822 45.1078 11.8508C45.2567 12.5322 45.4489 13.0443 45.7084 13.4626C46.6214 14.938 48.356 15.7885 50.8739 15.9906C50.9844 16 51.1622 16.0047 51.34 16.0047C51.3832 16.0047 51.4265 16.0047 51.4649 16.0047H51.4793C51.9598 15.9953 52.5076 15.9859 53.0266 15.8966C53.0986 15.8872 53.2572 15.8637 53.4158 15.8449C53.5599 15.8261 53.7089 15.8026 53.7713 15.7979C53.7761 15.7979 53.7858 15.7979 53.7906 15.7979L53.8819 15.7745C54.396 15.6523 54.9246 15.5207 55.357 15.2952C55.6405 15.1777 55.8327 15.0367 56.049 14.8769C56.3277 14.6843 56.7601 14.2285 56.8658 14.0875C57.1926 13.6599 57.3704 13.2511 57.5818 12.7154C57.6875 12.4476 57.7644 12.128 57.7932 11.7944C57.7932 11.7615 57.8028 11.7239 57.8076 11.6863C57.8172 11.6394 57.822 11.5971 57.822 11.5548C57.8605 11.3339 57.8701 11.1366 57.8749 10.9298C57.8749 10.8311 57.8797 10.7325 57.8893 10.6291C57.9085 10.3048 57.9181 9.98062 57.9133 9.73157C57.9133 9.52482 57.9133 9.35095 57.9133 9.18179C57.9133 8.94214 57.9229 8.71189 57.9037 8.45345L57.9229 7.85198C57.9229 7.55125 57.9229 7.00147 57.9277 6.47048C57.9325 5.82203 57.9422 5.26285 57.9277 5.13598C57.8893 4.64728 57.9037 4.14449 57.9181 3.6558L57.947 3.6417ZM43.0031 14.7501C43.0127 14.6373 43.0079 14.5151 43.0031 14.407C43.0031 14.3319 42.9983 14.2567 43.0031 14.205C43.0127 14.0076 43.0223 13.7257 43.0127 13.533C43.0031 13.3827 43.0079 13.2652 43.0079 13.1383C43.0079 13.049 43.0079 12.9598 43.0079 12.8564C43.0079 12.7671 42.9311 12.6966 42.8398 12.6919H42.5755C42.1574 12.6872 41.6433 12.6825 41.2829 12.6825H36.7133C36.2328 12.6825 35.7474 12.6778 35.2669 12.6731C35.2189 12.6684 35.1468 12.6637 35.0459 12.6637C35.0267 12.6637 35.0123 12.6637 34.993 12.6637C34.993 12.3207 34.9834 11.5971 34.9738 11.4843C34.9594 11.2775 34.9594 11.0755 34.9642 10.864C34.9642 10.6808 34.9642 10.4928 34.9594 10.2954C34.9594 10.1874 34.9594 9.6235 34.9594 8.72599C34.9594 8.16681 34.9594 7.58414 34.9594 7.53715C34.9882 7.17533 35.0219 3.31278 34.9978 3.04023C34.993 2.96505 34.9978 2.84758 34.9978 2.7442V2.65492C34.9978 2.45286 34.9882 2.04405 34.9786 1.63994C34.969 1.21233 34.9594 0.770631 34.9594 0.662555C34.9594 0.568576 34.8825 0.498091 34.7912 0.493392C34.0272 0.483994 33.2248 0.479295 32.4511 0.469897H32.1869C32.1869 0.469897 32.1388 0.469897 32.1196 0.479295C32.1196 0.479295 32.11 0.479295 32.1052 0.479295C32.0715 0.479295 32.0235 0.483994 31.9706 0.512188C31.9178 0.540382 31.8841 0.587372 31.8793 0.643759C31.8457 1.01968 31.8601 1.3909 31.8697 1.75742C31.8841 2.11924 31.8938 2.45756 31.8601 2.77709C31.8361 2.98385 31.8697 4.1257 31.8745 4.26667C31.8745 4.32305 31.8745 4.47342 31.8745 4.69427C31.8649 5.66226 31.8457 7.93656 31.8745 8.51924C31.8553 8.85756 31.8649 10.3753 31.8649 10.3988C31.8841 10.568 31.8697 10.7794 31.8649 10.9815C31.8553 11.1976 31.8409 11.4138 31.8649 11.6112L31.8745 14.4775C31.8745 14.6326 31.8889 15.3374 31.8889 15.3374C31.8889 15.4267 31.9658 15.5019 32.0571 15.5019C32.0571 15.5019 32.5569 15.5066 32.7683 15.516C32.9509 15.5207 33.5179 15.5254 33.8735 15.5254C33.9984 15.5254 34.1041 15.5254 34.1569 15.5254H40.5285L42.1238 15.516C42.1238 15.516 42.1382 15.516 42.143 15.516C42.2007 15.5066 42.3064 15.5066 42.3977 15.5066H42.5418C42.662 15.5066 42.7533 15.5066 42.8205 15.4972C43.0512 15.469 43.032 15.1871 43.0127 14.8863C43.0127 14.83 43.0031 14.7595 43.0079 14.736L43.0031 14.7501ZM95.6814 10.8405C95.715 11.6769 95.5516 12.4899 95.2201 13.1336C94.7684 14.0076 94.0717 14.6655 93.2115 15.032C92.2169 15.4596 90.5495 15.5207 89.6462 15.5207C89.3531 15.5207 89.0599 15.516 88.7812 15.5019C88.4977 15.5019 87.7866 15.5019 87.0899 15.4972C86.446 15.4972 85.8213 15.4972 85.5522 15.4972C85.3648 15.4972 85.2015 15.4972 85.0477 15.4972H84.3894C84.1924 15.4972 83.981 15.4972 83.7215 15.4972H83.6879C83.6062 15.4972 83.4812 15.4972 83.3515 15.4925C83.2169 15.4925 83.0776 15.4878 82.9815 15.4878H82.9335C82.5442 15.4972 82.155 15.4878 81.8475 15.4784C81.7562 15.4784 81.6889 15.4032 81.6841 15.314C81.6841 15.1354 81.6841 14.4305 81.6841 13.7492C81.6841 13.2793 81.6889 12.8188 81.6889 12.5744C81.6985 12.4382 81.6985 12.0623 81.7033 11.7568C81.7033 11.5548 81.7033 11.3715 81.7082 11.2963L81.6985 7.3163V3.87195C81.6937 3.62761 81.6937 2.7583 81.6985 2.56094C81.7082 2.40117 81.7033 2.25551 81.6985 2.10044C81.6985 1.92658 81.6937 1.75272 81.7033 1.55536C81.7226 1.22643 81.7226 0.883407 81.7226 0.582673V0.54978C81.7226 0.465198 81.7898 0.394714 81.8763 0.385316C81.958 0.375918 82.0349 0.380617 82.131 0.385316C82.1742 0.385316 82.2223 0.385316 82.2752 0.385316H83.7647C84.1684 0.385316 84.7786 0.385316 85.4129 0.385316C85.7636 0.385316 86.5229 0.385316 87.2773 0.385316C87.9932 0.385316 88.7044 0.385316 89.0359 0.385316C89.3771 0.375918 89.7903 0.385316 90.1699 0.394714C90.5063 0.404112 90.7513 0.422908 91.0252 0.4558C92.2265 0.610866 93.1779 1.09486 93.7737 1.86079C94.1053 2.2884 94.3359 2.79119 94.5137 3.50073C94.5762 3.74978 94.5954 4.06461 94.5714 4.48752C94.5522 4.85874 94.3744 5.46021 94.2062 5.75624C93.9515 6.20734 93.5815 6.57386 93.1443 6.82761C93.1395 6.82761 93.1299 6.83231 93.1251 6.837C93.0722 6.8605 93.0241 6.87929 92.9761 6.90279C93.1491 6.98267 93.3269 7.08135 93.5479 7.21292C94.0957 7.58884 94.7732 8.11982 95.196 8.97034C95.4171 9.41674 95.542 9.75977 95.6429 10.5022C95.6429 10.5069 95.6429 10.5116 95.6429 10.521C95.6429 10.5633 95.6477 10.6197 95.6525 10.6714C95.6525 10.7325 95.6621 10.7888 95.6621 10.8311L95.6814 10.8405ZM84.7642 12.9786C84.7882 12.9786 84.817 12.9786 84.8411 12.9786C84.8795 12.9786 84.9228 12.9786 84.9612 12.9786C84.9852 12.9786 85.0093 12.9786 85.0333 12.9786C85.2015 12.9786 85.7348 12.988 86.2826 12.9927C86.8832 12.9974 87.5031 13.0068 87.6953 13.0115C88.1085 13.0302 88.4593 13.0302 88.959 13.0302H89.2762C89.5357 13.0302 89.7663 13.0209 89.9921 12.9927C91.03 12.8752 91.7076 12.551 92.0727 12.0059C92.2361 11.7662 92.3562 11.4326 92.4283 11.0473C92.5292 10.5116 92.3755 10.0041 92.1977 9.70338C91.9718 9.32746 91.8133 9.1442 91.4865 8.89515C91.4192 8.85286 91.3712 8.81997 91.3087 8.79648C91.155 8.72599 91.006 8.6649 90.8763 8.62731C90.6648 8.56623 90.4678 8.51454 90.2276 8.48634C89.5597 8.41586 88.5362 8.40646 87.8298 8.40646C87.4022 8.40646 86.9697 8.40646 86.5613 8.41116C85.8886 8.41116 85.2735 8.42056 84.8267 8.41116H84.7978C84.7978 8.41116 84.7642 8.41116 84.7498 8.41116C84.7402 8.64141 84.7402 8.97974 84.7402 9.163C84.7402 9.17239 84.7402 9.24288 84.7402 9.36035C84.7498 9.92893 84.769 11.4467 84.7642 11.8414V12.753C84.769 12.8235 84.7642 12.9034 84.7642 12.9786ZM91.2991 3.93304C90.9051 2.91806 89.9873 2.81468 88.5218 2.77239C88.4689 2.77239 88.3968 2.77239 88.3296 2.77239H88.2431C88.1806 2.77239 88.1133 2.77239 88.0557 2.77239C87.4887 2.78179 86.3979 2.80059 85.5811 2.81468C85.2543 2.81938 84.9708 2.82408 84.7786 2.82878C84.7786 2.91336 84.7786 2.99325 84.7786 3.07783C84.7786 3.2141 84.7786 3.35976 84.7738 3.53833C84.769 3.84846 84.7738 4.13979 84.7738 4.47812C84.7738 4.66138 84.7786 4.85874 84.7834 5.08429C84.7834 5.23465 84.7834 5.63407 84.7882 5.85962C84.8459 5.85962 84.9083 5.85962 84.966 5.85962C85.1198 5.86432 85.6243 5.86902 86.1144 5.86902C86.3883 5.86902 86.6574 5.86902 86.8544 5.87371C86.9457 5.87371 87.2196 5.87371 87.4983 5.87371C87.777 5.87371 88.0557 5.87371 88.147 5.87371C88.2479 5.87371 88.344 5.87371 88.4401 5.87371C89.281 5.87371 89.9633 5.80793 90.3573 5.68106C90.5928 5.60587 90.7946 5.4931 90.9724 5.33803C91.006 5.30514 91.0733 5.24875 91.1021 5.20176L91.1405 5.14068C91.227 5.0091 91.3135 4.87753 91.3376 4.74126C91.3904 4.47812 91.3712 4.1304 91.2943 3.93304H91.2991ZM16.8538 0.432305C16.825 0.375918 16.7673 0.338326 16.7 0.338326H13.4566C13.3989 0.338326 13.3509 0.36652 13.3173 0.408811C12.1881 1.98297 11.1646 3.71219 10.2804 5.53539C9.58851 6.95918 8.96865 8.46755 8.43048 10.0229C7.89231 8.46755 7.27245 6.95918 6.58052 5.53539C5.69158 3.70749 4.6729 1.98297 3.5437 0.408811C3.51007 0.36652 3.45721 0.338326 3.40435 0.338326H0.170526C0.103255 0.338326 0.0455939 0.375918 0.0167634 0.432305C-0.0120672 0.493392 -0.002457 0.559178 0.0359837 0.610866C1.04505 1.8279 2.53944 3.88605 3.93772 6.76652C5.56184 10.1075 6.44598 13.3028 6.89766 15.3938C6.91688 15.4737 6.98415 15.5254 7.06583 15.5254H9.79993C9.88162 15.5254 9.94889 15.469 9.96811 15.3938C10.4198 13.3075 11.3039 10.1169 12.9329 6.76652C14.3263 3.90015 15.8255 1.8373 16.8346 0.610866C16.8778 0.559178 16.8826 0.493392 16.8538 0.432305Z" fill="#2C2C2C"/>
</svg>
